<?xml version="1.0" encoding="UTF-8" standalone="no"?>
<svg
   xmlns:dc="http://purl.org/dc/elements/1.1/"
   xmlns:cc="http://creativecommons.org/ns#"
   xmlns:rdf="http://www.w3.org/1999/02/22-rdf-syntax-ns#"
   xmlns:svg="http://www.w3.org/2000/svg"
   xmlns="http://www.w3.org/2000/svg"
   xmlns:sodipodi="http://sodipodi.sourceforge.net/DTD/sodipodi-0.dtd"
   xmlns:inkscape="http://www.inkscape.org/namespaces/inkscape"
   width="768.00006"
   height="346.60645"
   viewBox="0 0 768.00003 346.60646"
   version="1.2"
   id="svg334"
   sodipodi:docname="PBch_Amin_5_selection2-1.svg"
   inkscape:version="1.0.2 (e86c870879, 2021-01-15)">
  <metadata
     id="metadata340">
    <rdf:RDF>
      <cc:Work
         rdf:about="">
        <dc:format>image/svg+xml</dc:format>
        <dc:type
           rdf:resource="http://purl.org/dc/dcmitype/StillImage" />
        <dc:title>PBch_Amin_5_selection</dc:title>
      </cc:Work>
    </rdf:RDF>
  </metadata>
  <defs
     id="defs338" />
  <sodipodi:namedview
     pagecolor="#ffffff"
     bordercolor="#666666"
     borderopacity="1"
     objecttolerance="10"
     gridtolerance="10"
     guidetolerance="10"
     inkscape:pageopacity="0"
     inkscape:pageshadow="2"
     inkscape:window-width="1366"
     inkscape:window-height="705"
     id="namedview336"
     showgrid="false"
     fit-margin-top="0"
     fit-margin-left="0"
     fit-margin-right="0"
     fit-margin-bottom="0"
     inkscape:zoom="0.21322125"
     inkscape:cx="-359.56982"
     inkscape:cy="200.38141"
     inkscape:window-x="0"
     inkscape:window-y="0"
     inkscape:window-maximized="1"
     inkscape:current-layer="svg334"
     scale-x="1.20001"
     units="px" />
  <title
     id="title2">PBch_Amin_5_selection</title>
  <desc
     id="desc4">Generated by MuseScore 3.6.1</desc>
  <polyline
     class="StaffLines"
     fill="none"
     stroke="#000000"
     stroke-width="2.73"
     stroke-linejoin="bevel"
     points="252.038,386.199 2763.78,386.199"
     id="polyline6"
     transform="matrix(0.30185443,0,0,0.30185443,-66.259188,-105.71637)" />
  <polyline
     class="StaffLines"
     fill="none"
     stroke="#000000"
     stroke-width="2.73"
     stroke-linejoin="bevel"
     points="252.038,410.999 2763.78,410.999"
     id="polyline8"
     transform="matrix(0.30185443,0,0,0.30185443,-66.259188,-105.71637)" />
  <polyline
     class="StaffLines"
     fill="none"
     stroke="#000000"
     stroke-width="2.73"
     stroke-linejoin="bevel"
     points="252.038,435.799 2763.78,435.799"
     id="polyline10"
     transform="matrix(0.30185443,0,0,0.30185443,-66.259188,-105.71637)" />
  <polyline
     class="StaffLines"
     fill="none"
     stroke="#000000"
     stroke-width="2.73"
     stroke-linejoin="bevel"
     points="252.038,460.599 2763.78,460.599"
     id="polyline12"
     transform="matrix(0.30185443,0,0,0.30185443,-66.259188,-105.71637)" />
  <polyline
     class="StaffLines"
     fill="none"
     stroke="#000000"
     stroke-width="2.73"
     stroke-linejoin="bevel"
     points="252.038,485.399 2763.78,485.399"
     id="polyline14"
     transform="matrix(0.30185443,0,0,0.30185443,-66.259188,-105.71637)" />
  <polyline
     class="StaffLines"
     fill="none"
     stroke="#000000"
     stroke-width="2.73"
     stroke-linejoin="bevel"
     points="252.038,646.599 2763.78,646.599"
     id="polyline16"
     transform="matrix(0.30185443,0,0,0.30185443,-66.259188,-105.71637)" />
  <polyline
     class="StaffLines"
     fill="none"
     stroke="#000000"
     stroke-width="2.73"
     stroke-linejoin="bevel"
     points="252.038,671.399 2763.78,671.399"
     id="polyline18"
     transform="matrix(0.30185443,0,0,0.30185443,-66.259188,-105.71637)" />
  <polyline
     class="StaffLines"
     fill="none"
     stroke="#000000"
     stroke-width="2.73"
     stroke-linejoin="bevel"
     points="252.038,696.199 2763.78,696.199"
     id="polyline20"
     transform="matrix(0.30185443,0,0,0.30185443,-66.259188,-105.71637)" />
  <polyline
     class="StaffLines"
     fill="none"
     stroke="#000000"
     stroke-width="2.73"
     stroke-linejoin="bevel"
     points="252.038,720.999 2763.78,720.999"
     id="polyline22"
     transform="matrix(0.30185443,0,0,0.30185443,-66.259188,-105.71637)" />
  <polyline
     class="StaffLines"
     fill="none"
     stroke="#000000"
     stroke-width="2.73"
     stroke-linejoin="bevel"
     points="252.038,745.799 2763.78,745.799"
     id="polyline24"
     transform="matrix(0.30185443,0,0,0.30185443,-66.259188,-105.71637)" />
  <polyline
     class="StaffLines"
     fill="none"
     stroke="#000000"
     stroke-width="2.73"
     stroke-linejoin="bevel"
     points="252.038,1120.28 2143.14,1120.28"
     id="polyline26"
     transform="matrix(0.30185443,0,0,0.30185443,-66.259188,-105.71637)" />
  <polyline
     class="StaffLines"
     fill="none"
     stroke="#000000"
     stroke-width="2.73"
     stroke-linejoin="bevel"
     points="252.038,1145.08 2143.14,1145.08"
     id="polyline28"
     transform="matrix(0.30185443,0,0,0.30185443,-66.259188,-105.71637)" />
  <polyline
     class="StaffLines"
     fill="none"
     stroke="#000000"
     stroke-width="2.73"
     stroke-linejoin="bevel"
     points="252.038,1169.88 2143.14,1169.88"
     id="polyline30"
     transform="matrix(0.30185443,0,0,0.30185443,-66.259188,-105.71637)" />
  <polyline
     class="StaffLines"
     fill="none"
     stroke="#000000"
     stroke-width="2.73"
     stroke-linejoin="bevel"
     points="252.038,1194.68 2143.14,1194.68"
     id="polyline32"
     transform="matrix(0.30185443,0,0,0.30185443,-66.259188,-105.71637)" />
  <polyline
     class="StaffLines"
     fill="none"
     stroke="#000000"
     stroke-width="2.73"
     stroke-linejoin="bevel"
     points="252.038,1219.48 2143.14,1219.48"
     id="polyline34"
     transform="matrix(0.30185443,0,0,0.30185443,-66.259188,-105.71637)" />
  <polyline
     class="StaffLines"
     fill="none"
     stroke="#000000"
     stroke-width="2.73"
     stroke-linejoin="bevel"
     points="252.038,1380.68 2143.14,1380.68"
     id="polyline36"
     transform="matrix(0.30185443,0,0,0.30185443,-66.259188,-105.71637)" />
  <polyline
     class="StaffLines"
     fill="none"
     stroke="#000000"
     stroke-width="2.73"
     stroke-linejoin="bevel"
     points="252.038,1405.48 2143.14,1405.48"
     id="polyline38"
     transform="matrix(0.30185443,0,0,0.30185443,-66.259188,-105.71637)" />
  <polyline
     class="StaffLines"
     fill="none"
     stroke="#000000"
     stroke-width="2.73"
     stroke-linejoin="bevel"
     points="252.038,1430.28 2143.14,1430.28"
     id="polyline40"
     transform="matrix(0.30185443,0,0,0.30185443,-66.259188,-105.71637)" />
  <polyline
     class="StaffLines"
     fill="none"
     stroke="#000000"
     stroke-width="2.73"
     stroke-linejoin="bevel"
     points="252.038,1455.08 2143.14,1455.08"
     id="polyline42"
     transform="matrix(0.30185443,0,0,0.30185443,-66.259188,-105.71637)" />
  <polyline
     class="StaffLines"
     fill="none"
     stroke="#000000"
     stroke-width="2.73"
     stroke-linejoin="bevel"
     points="252.038,1479.88 2143.14,1479.88"
     id="polyline44"
     transform="matrix(0.30185443,0,0,0.30185443,-66.259188,-105.71637)" />
  <path
     class="MeasureNumber"
     d="m 11.423352,213.4313 c 0.20737,-1.06556 0.44795,-1.72662 0.90556,-2.5386 0.54696,-0.95084 1.19806,-1.43683 1.91949,-1.43683 0.37732,0 0.60371,0.14489 0.60371,0.37732 0,0.0845 -0.0235,0.12979 -0.10836,0.28676 -0.10837,0.20828 -0.15576,0.35015 -0.15576,0.53429 0,0.38637 0.28767,0.64898 0.69819,0.64898 0.49504,0 0.83463,-0.36222 0.83463,-0.90557 0,-0.82103 -0.77335,-1.42474 -1.84886,-1.42474 -1.13195,0 -2.14588,0.60371 -2.96663,1.76585 -0.84428,1.19232 -1.3535104,2.72573 -1.3535104,4.06597 0,1.77793 0.8820204,2.84649 2.3535604,2.84649 0.90556,0 1.71664,-0.35619 2.29681,-0.99914 0.52824,-0.60371 0.85364,-1.47003 0.85364,-2.26693 0,-1.23156 -0.8301,-2.09184 -2.03751,-2.09184 -0.84429,0 -1.49962,0.36524 -1.99496,1.13799 m 1.60828,-0.43769 c 0.74981,0 1.16033,0.51617 1.16033,1.46097 0,1.53342 -0.81139,2.7016 -1.88659,2.7016 -0.77365,0 -1.23096,-0.56447 -1.23096,-1.53342 0,-1.50927 0.83462,-2.62915 1.95722,-2.62915"
     id="path46"
     style="stroke-width:0.301854" />
  <polyline
     class="BarLine"
     fill="none"
     stroke="#000000"
     stroke-width="4.46"
     stroke-linejoin="bevel"
     points="254.27,645.235 254.27,747.163"
     id="polyline48"
     transform="matrix(0.30185443,0,0,0.30185443,-66.259188,-105.71637)" />
  <polyline
     class="BarLine"
     fill="none"
     stroke="#000000"
     stroke-width="4.46"
     stroke-linejoin="bevel"
     points="835.979,645.235 835.979,747.163"
     id="polyline50"
     transform="matrix(0.30185443,0,0,0.30185443,-66.259188,-105.71637)" />
  <polyline
     class="BarLine"
     fill="none"
     stroke="#000000"
     stroke-width="4.46"
     stroke-linejoin="bevel"
     points="1225.62,645.235 1225.62,747.163"
     id="polyline52"
     transform="matrix(0.30185443,0,0,0.30185443,-66.259188,-105.71637)" />
  <polyline
     class="BarLine"
     fill="none"
     stroke="#000000"
     stroke-width="4.46"
     stroke-linejoin="bevel"
     points="1579.81,645.235 1579.81,747.163"
     id="polyline54"
     transform="matrix(0.30185443,0,0,0.30185443,-66.259188,-105.71637)" />
  <polyline
     class="BarLine"
     fill="none"
     stroke="#000000"
     stroke-width="4.46"
     stroke-linejoin="bevel"
     points="2202.06,645.235 2202.06,747.163"
     id="polyline56"
     transform="matrix(0.30185443,0,0,0.30185443,-66.259188,-105.71637)" />
  <polyline
     class="BarLine"
     fill="none"
     stroke="#000000"
     stroke-width="4.46"
     stroke-linejoin="bevel"
     points="2761.55,645.235 2761.55,747.163"
     id="polyline58"
     transform="matrix(0.30185443,0,0,0.30185443,-66.259188,-105.71637)" />
  <polyline
     class="BarLine"
     fill="none"
     stroke="#000000"
     stroke-width="4.46"
     stroke-linejoin="bevel"
     points="254.27,1379.32 254.27,1481.24"
     id="polyline60"
     transform="matrix(0.30185443,0,0,0.30185443,-66.259188,-105.71637)" />
  <polyline
     class="BarLine"
     fill="none"
     stroke="#000000"
     stroke-width="4.46"
     stroke-linejoin="bevel"
     points="809.217,1379.32 809.217,1481.24"
     id="polyline62"
     transform="matrix(0.30185443,0,0,0.30185443,-66.259188,-105.71637)" />
  <polyline
     class="BarLine"
     fill="none"
     stroke="#000000"
     stroke-width="4.46"
     stroke-linejoin="bevel"
     points="1238.03,1379.32 1238.03,1481.24"
     id="polyline64"
     transform="matrix(0.30185443,0,0,0.30185443,-66.259188,-105.71637)" />
  <polyline
     class="BarLine"
     fill="none"
     stroke="#000000"
     stroke-width="4.46"
     stroke-linejoin="bevel"
     points="1666.85,1379.32 1666.85,1481.24"
     id="polyline66"
     transform="matrix(0.30185443,0,0,0.30185443,-66.259188,-105.71637)" />
  <polyline
     class="BarLine"
     fill="none"
     stroke="#000000"
     stroke-width="4.46"
     stroke-linejoin="bevel"
     points="2118.96,1379.32 2118.96,1481.24"
     id="polyline68"
     transform="matrix(0.30185443,0,0,0.30185443,-66.259188,-105.71637)" />
  <polyline
     class="BarLine"
     fill="none"
     stroke="#000000"
     stroke-width="13.64"
     stroke-linejoin="bevel"
     points="2136.32,1379.32 2136.32,1481.24"
     id="polyline70"
     transform="matrix(0.30185443,0,0,0.30185443,-66.259188,-105.71637)" />
  <polyline
     class="BarLine"
     fill="none"
     stroke="#000000"
     stroke-width="4.46"
     stroke-linejoin="bevel"
     points="254.27,384.835 254.27,646.599"
     id="polyline72"
     transform="matrix(0.30185443,0,0,0.30185443,-66.259188,-105.71637)" />
  <polyline
     class="BarLine"
     fill="none"
     stroke="#000000"
     stroke-width="4.46"
     stroke-linejoin="bevel"
     points="835.979,384.835 835.979,646.599"
     id="polyline74"
     transform="matrix(0.30185443,0,0,0.30185443,-66.259188,-105.71637)" />
  <polyline
     class="BarLine"
     fill="none"
     stroke="#000000"
     stroke-width="4.46"
     stroke-linejoin="bevel"
     points="1225.62,384.835 1225.62,646.599"
     id="polyline76"
     transform="matrix(0.30185443,0,0,0.30185443,-66.259188,-105.71637)" />
  <polyline
     class="BarLine"
     fill="none"
     stroke="#000000"
     stroke-width="4.46"
     stroke-linejoin="bevel"
     points="1579.81,384.835 1579.81,646.599"
     id="polyline78"
     transform="matrix(0.30185443,0,0,0.30185443,-66.259188,-105.71637)" />
  <polyline
     class="BarLine"
     fill="none"
     stroke="#000000"
     stroke-width="4.46"
     stroke-linejoin="bevel"
     points="2202.06,384.835 2202.06,646.599"
     id="polyline80"
     transform="matrix(0.30185443,0,0,0.30185443,-66.259188,-105.71637)" />
  <polyline
     class="BarLine"
     fill="none"
     stroke="#000000"
     stroke-width="4.46"
     stroke-linejoin="bevel"
     points="2761.55,384.835 2761.55,646.599"
     id="polyline82"
     transform="matrix(0.30185443,0,0,0.30185443,-66.259188,-105.71637)" />
  <polyline
     class="BarLine"
     fill="none"
     stroke="#000000"
     stroke-width="4.46"
     stroke-linejoin="bevel"
     points="254.27,1118.92 254.27,1380.68"
     id="polyline84"
     transform="matrix(0.30185443,0,0,0.30185443,-66.259188,-105.71637)" />
  <polyline
     class="BarLine"
     fill="none"
     stroke="#000000"
     stroke-width="4.46"
     stroke-linejoin="bevel"
     points="809.217,1118.92 809.217,1380.68"
     id="polyline86"
     transform="matrix(0.30185443,0,0,0.30185443,-66.259188,-105.71637)" />
  <polyline
     class="BarLine"
     fill="none"
     stroke="#000000"
     stroke-width="4.46"
     stroke-linejoin="bevel"
     points="1238.03,1118.92 1238.03,1380.68"
     id="polyline88"
     transform="matrix(0.30185443,0,0,0.30185443,-66.259188,-105.71637)" />
  <polyline
     class="BarLine"
     fill="none"
     stroke="#000000"
     stroke-width="4.46"
     stroke-linejoin="bevel"
     points="1666.85,1118.92 1666.85,1380.68"
     id="polyline90"
     transform="matrix(0.30185443,0,0,0.30185443,-66.259188,-105.71637)" />
  <polyline
     class="BarLine"
     fill="none"
     stroke="#000000"
     stroke-width="4.46"
     stroke-linejoin="bevel"
     points="2118.96,1118.92 2118.96,1380.68"
     id="polyline92"
     transform="matrix(0.30185443,0,0,0.30185443,-66.259188,-105.71637)" />
  <polyline
     class="BarLine"
     fill="none"
     stroke="#000000"
     stroke-width="13.64"
     stroke-linejoin="bevel"
     points="2136.32,1118.92 2136.32,1380.68"
     id="polyline94"
     transform="matrix(0.30185443,0,0,0.30185443,-66.259188,-105.71637)" />
  <path
     class="Accidental"
     d="m 79.294572,93.77618 c 0.18249,-0.0327 0.33221,-0.24329 0.33221,-0.42107 v -1.76858 c 0,-0.2386 -0.18249,-0.41641 -0.42111,-0.41641 h -0.0608 l -0.98722,0.21055 v -4.46352 h -0.8375 v 4.64132 l -2.66688,0.53806 v -4.22024 h -0.8375 v 4.40269 l -1.16968,0.23862 c -0.1778,0.0281 -0.32752,0.23863 -0.32752,0.4164 v 0.0608 1.73582 -0.0562 c 0,0.23862 0.1778,0.41641 0.42109,0.41641 h 0.0889 l 0.98721,-0.21054 v 4.94075 l -1.16968,0.24331 c -0.1778,0.0281 -0.32752,0.2386 -0.32752,0.41641 v 1.73582 c 0,0.24329 0.1778,0.42107 0.42109,0.42107 h 0.0889 l 0.98721,-0.21053 v 4.46351 h 0.8375 v -4.64132 l 2.66688,-0.53803 v 4.22021 h 0.8375 v -4.4027 l 1.13694,-0.21053 c 0.18249,-0.0281 0.33221,-0.23862 0.33221,-0.41643 v -1.76855 c 0,-0.23863 -0.18249,-0.41642 -0.42111,-0.41642 h -0.0608 l -0.98722,0.20587 v -4.94076 l 1.13694,-0.20588 m -4.64132,5.89524 V 94.7025 l 2.66688,-0.53806 v 4.94076 l -2.66688,0.56613"
     id="path96"
     style="stroke-width:0.29944" />
  <path
     class="Accidental"
     d="m 62.729412,315.36178 c 0.18248,-0.0327 0.3322,-0.2433 0.3322,-0.42106 v -1.7686 c 0,-0.23858 -0.18248,-0.4164 -0.42111,-0.4164 h -0.0608 l -0.98723,0.21054 v -4.46352 h -0.8375 v 4.64134 l -2.66687,0.53806 v -4.22026 h -0.8375 v 4.4027 l -1.16969,0.23861 c -0.17779,0.0281 -0.32751,0.23865 -0.32751,0.41641 v 0.0609 1.73581 -0.0561 c 0,0.23861 0.17779,0.4164 0.42109,0.4164 h 0.0889 l 0.98722,-0.21054 v 4.94075 l -1.16969,0.2433 c -0.17779,0.0281 -0.32751,0.23861 -0.32751,0.41641 v 1.73584 c 0,0.2433 0.17779,0.42106 0.42109,0.42106 h 0.0889 l 0.98722,-0.21055 v 4.46353 h 0.8375 v -4.64132 l 2.66687,-0.53805 v 4.22022 h 0.8375 v -4.40269 l 1.13695,-0.21055 c 0.18248,-0.0281 0.3322,-0.23861 0.3322,-0.41641 v -1.76856 c 0,-0.23862 -0.18248,-0.41641 -0.42111,-0.41641 h -0.0608 l -0.98723,0.20587 v -4.94076 l 1.13695,-0.20589 m -4.64132,5.89524 v -4.96882 l 2.66687,-0.53806 v 4.94076 l -2.66687,0.56612"
     id="path98"
     style="stroke-width:0.29944" />
  <path
     class="Accidental"
     d="m 321.60884,311.61878 c 0.1825,-0.0327 0.33222,-0.2433 0.33222,-0.42105 v -1.7686 c 0,-0.23859 -0.18251,-0.41641 -0.42115,-0.41641 h -0.0608 l -0.98725,0.21055 v -4.46353 h -0.83746 v 4.64135 l -2.66689,0.53805 v -4.22025 h -0.83752 v 4.40269 l -1.16969,0.23862 c -0.17779,0.0281 -0.32751,0.23865 -0.32751,0.41641 v 0.0609 1.73582 -0.0562 c 0,0.23862 0.17779,0.41641 0.42109,0.41641 h 0.0889 l 0.98719,-0.21054 v 4.94075 l -1.16969,0.24329 c -0.17779,0.0281 -0.32751,0.23862 -0.32751,0.41641 v 1.73585 c 0,0.24329 0.17779,0.42105 0.42109,0.42105 h 0.0889 l 0.98719,-0.21054 v 4.46352 h 0.83752 v -4.64131 l 2.66689,-0.53806 v 4.22023 h 0.83746 v -4.4027 l 1.13697,-0.21054 c 0.1825,-0.0281 0.33222,-0.23862 0.33222,-0.41641 v -1.76857 c 0,-0.23861 -0.18251,-0.4164 -0.42115,-0.4164 h -0.0608 l -0.98725,0.20586 v -4.94075 l 1.13697,-0.2059 m -4.64132,5.89525 v -4.96883 l 2.66689,-0.53805 v 4.94075 l -2.66689,0.56613"
     id="path100"
     style="stroke-width:0.29944" />
  <path
     class="Accidental"
     d="m 377.81111,315.36178 c 0.1825,-0.0327 0.33222,-0.2433 0.33222,-0.42106 v -1.7686 c 0,-0.23858 -0.1825,-0.4164 -0.42115,-0.4164 h -0.0608 l -0.98724,0.21054 v -4.46352 h -0.83747 v 4.64134 l -2.66688,0.53806 v -4.22026 h -0.83753 v 4.4027 l -1.16968,0.23861 c -0.1778,0.0281 -0.32752,0.23865 -0.32752,0.41641 v 0.0609 1.73581 -0.0561 c 0,0.23861 0.1778,0.4164 0.42109,0.4164 h 0.0889 l 0.98718,-0.21054 v 4.94075 l -1.16968,0.2433 c -0.1778,0.0281 -0.32752,0.23861 -0.32752,0.41641 v 1.73584 c 0,0.2433 0.1778,0.42106 0.42109,0.42106 h 0.0889 l 0.98718,-0.21055 v 4.46353 h 0.83753 v -4.64132 l 2.66688,-0.53805 v 4.22022 h 0.83747 v -4.40269 l 1.13696,-0.21055 c 0.1825,-0.0281 0.33222,-0.23861 0.33222,-0.41641 v -1.76856 c 0,-0.23862 -0.1825,-0.41641 -0.42115,-0.41641 h -0.0608 l -0.98724,0.20587 v -4.94076 l 1.13696,-0.20589 m -4.64131,5.89524 v -4.96882 l 2.66688,-0.53806 v 4.94076 l -2.66688,0.56612"
     id="path102"
     style="stroke-width:0.29944" />
  <path
     class="Accidental"
     d="m 424.77664,33.88827 c 0.1825,-0.0327 0.33222,-0.2433 0.33222,-0.42108 v -1.76858 c 0,-0.23859 -0.1825,-0.4164 -0.42115,-0.4164 h -0.0608 l -0.98724,0.21054 v -4.46352 h -0.83747 v 4.64132 l -2.66688,0.53806 v -4.22024 h -0.83753 v 4.4027 l -1.16968,0.23862 c -0.1778,0.0281 -0.32752,0.23862 -0.32752,0.4164 v 0.0608 1.73582 -0.0562 c 0,0.23861 0.1778,0.4164 0.42109,0.4164 h 0.0889 l 0.98718,-0.21053 v 4.94075 l -1.16968,0.24331 c -0.1778,0.0281 -0.32752,0.2386 -0.32752,0.41641 v 1.73582 c 0,0.24329 0.1778,0.42107 0.42109,0.42107 h 0.0889 l 0.98718,-0.21054 v 4.46351 h 0.83753 v -4.64132 l 2.66688,-0.53803 v 4.22022 h 0.83747 v -4.4027 l 1.13696,-0.21053 c 0.1825,-0.0281 0.33222,-0.23863 0.33222,-0.41644 v -1.76855 c 0,-0.23862 -0.1825,-0.41641 -0.42115,-0.41641 h -0.0608 l -0.98724,0.20586 v -4.94076 l 1.13696,-0.20588 m -4.64131,5.89524 v -4.96883 l 2.66688,-0.53806 v 4.94076 l -2.66688,0.56613"
     id="path104"
     style="stroke-width:0.29944" />
  <path
     class="Accidental"
     d="m 448.49636,30.14527 c 0.1825,-0.0327 0.33222,-0.24329 0.33222,-0.42107 v -1.76859 c 0,-0.23859 -0.1825,-0.4164 -0.42114,-0.4164 h -0.0608 l -0.98724,0.21054 v -4.46351 h -0.83747 v 4.64132 l -2.66688,0.53806 v -4.22024 h -0.83753 v 4.40269 l -1.16968,0.23862 c -0.1778,0.0281 -0.32752,0.23863 -0.32752,0.41641 v 0.0608 1.73581 -0.0561 c 0,0.23861 0.1778,0.4164 0.42109,0.4164 h 0.0889 l 0.98718,-0.21054 v 4.94076 l -1.16968,0.2433 c -0.1778,0.0281 -0.32752,0.2386 -0.32752,0.41641 v 1.73582 c 0,0.2433 0.1778,0.42107 0.42109,0.42107 h 0.0889 l 0.98718,-0.21053 v 4.46351 h 0.83753 v -4.64132 l 2.66688,-0.53803 v 4.22021 h 0.83747 v -4.40269 l 1.13696,-0.21054 c 0.1825,-0.0281 0.33222,-0.23863 0.33222,-0.41643 v -1.76855 c 0,-0.23863 -0.1825,-0.41642 -0.42114,-0.41642 h -0.0608 l -0.98724,0.20587 v -4.94076 l 1.13696,-0.20588 m -4.64131,5.89524 v -4.96883 l 2.66688,-0.53806 v 4.94076 l -2.66688,0.56613"
     id="path106"
     style="stroke-width:0.29944" />
  <path
     class="Accidental"
     d="m 192.16911,255.47386 c 0.18248,-0.0327 0.3322,-0.24329 0.3322,-0.42107 v -1.76858 c 0,-0.23859 -0.18248,-0.4164 -0.4211,-0.4164 h -0.0608 l -0.98722,0.21054 v -4.46352 h -0.8375 v 4.64132 l -2.66688,0.53806 v -4.22024 h -0.8375 v 4.4027 l -1.16969,0.23862 c -0.17779,0.0281 -0.32751,0.23862 -0.32751,0.4164 v 0.0608 1.73582 -0.0562 c 0,0.23861 0.17779,0.4164 0.42109,0.4164 h 0.0889 l 0.98721,-0.21053 v 4.94075 l -1.16969,0.24331 c -0.17779,0.0281 -0.32751,0.23859 -0.32751,0.4164 v 1.73582 c 0,0.2433 0.17779,0.42108 0.42109,0.42108 h 0.0889 l 0.98721,-0.21054 v 4.46351 h 0.8375 V 263.947 l 2.66688,-0.53804 v 4.22021 h 0.8375 v -4.40269 l 1.13694,-0.21053 c 0.18248,-0.0281 0.3322,-0.23863 0.3322,-0.41644 v -1.76855 c 0,-0.23862 -0.18248,-0.41641 -0.4211,-0.41641 h -0.0608 l -0.98722,0.20586 v -4.94076 l 1.13694,-0.20588 m -4.64132,5.89524 v -4.96883 l 2.66688,-0.53806 v 4.94077 l -2.66688,0.56612"
     id="path108"
     style="stroke-width:0.29944" />
  <path
     class="Accidental"
     d="m 507.78661,255.47386 c 0.1825,-0.0327 0.33222,-0.24329 0.33222,-0.42107 v -1.76858 c 0,-0.23859 -0.1825,-0.4164 -0.42115,-0.4164 h -0.0608 l -0.98725,0.21054 v -4.46352 h -0.83746 v 4.64132 l -2.66689,0.53806 v -4.22024 h -0.83752 v 4.4027 l -1.16969,0.23862 c -0.17779,0.0281 -0.32751,0.23862 -0.32751,0.4164 v 0.0608 1.73582 -0.0562 c 0,0.23861 0.17779,0.4164 0.42109,0.4164 h 0.0889 l 0.98719,-0.21053 v 4.94075 l -1.16969,0.24331 c -0.17779,0.0281 -0.32751,0.23859 -0.32751,0.4164 v 1.73582 c 0,0.2433 0.17779,0.42108 0.42109,0.42108 h 0.0889 l 0.98719,-0.21054 v 4.46351 h 0.83752 V 263.947 l 2.66689,-0.53804 v 4.22021 h 0.83746 v -4.40269 l 1.13697,-0.21053 c 0.1825,-0.0281 0.33222,-0.23863 0.33222,-0.41644 v -1.76855 c 0,-0.23862 -0.1825,-0.41641 -0.42115,-0.41641 h -0.0608 l -0.98725,0.20586 v -4.94076 l 1.13697,-0.20588 m -4.64132,5.89524 v -4.96883 l 2.66689,-0.53806 v 4.94077 l -2.66689,0.56612"
     id="path110"
     style="stroke-width:0.29944" />
  <polyline
     class="LedgerLine"
     fill="none"
     stroke="#000000"
     stroke-width="3.97"
     stroke-linejoin="bevel"
     points="1042.58,621.799 1092.17,621.799"
     id="polyline112"
     transform="matrix(0.30185443,0,0,0.30185443,-66.259188,-105.71637)" />
  <polyline
     class="LedgerLine"
     fill="none"
     stroke="#000000"
     stroke-width="3.97"
     stroke-linejoin="bevel"
     points="870.451,510.199 920.043,510.199"
     id="polyline114"
     transform="matrix(0.30185443,0,0,0.30185443,-66.259188,-105.71637)" />
  <polyline
     class="Stem"
     fill="none"
     stroke="#000000"
     stroke-width="2.73"
     stroke-linejoin="bevel"
     points="490.855,674.732 490.855,755.099"
     id="polyline116"
     transform="matrix(0.30185443,0,0,0.30185443,-66.259188,-105.71637)" />
  <polyline
     class="Stem"
     fill="none"
     stroke="#000000"
     stroke-width="2.73"
     stroke-linejoin="bevel"
     points="662.983,687.132 662.983,764.399"
     id="polyline118"
     transform="matrix(0.30185443,0,0,0.30185443,-66.259188,-105.71637)" />
  <polyline
     class="Stem"
     fill="none"
     stroke="#000000"
     stroke-width="2.73"
     stroke-linejoin="bevel"
     points="880.495,649.932 880.495,733.399"
     id="polyline120"
     transform="matrix(0.30185443,0,0,0.30185443,-66.259188,-105.71637)" />
  <polyline
     class="Stem"
     fill="none"
     stroke="#000000"
     stroke-width="2.73"
     stroke-linejoin="bevel"
     points="1052.62,612.732 1052.62,696.199"
     id="polyline122"
     transform="matrix(0.30185443,0,0,0.30185443,-66.259188,-105.71637)" />
  <polyline
     class="Stem"
     fill="none"
     stroke="#000000"
     stroke-width="2.73"
     stroke-linejoin="bevel"
     points="1635.39,699.532 1635.39,773.699"
     id="polyline124"
     transform="matrix(0.30185443,0,0,0.30185443,-66.259188,-105.71637)" />
  <polyline
     class="Stem"
     fill="none"
     stroke="#000000"
     stroke-width="2.73"
     stroke-linejoin="bevel"
     points="1947.8,717.825 1947.8,637.299"
     id="polyline126"
     transform="matrix(0.30185443,0,0,0.30185443,-66.259188,-105.71637)" />
  <polyline
     class="Stem"
     fill="none"
     stroke="#000000"
     stroke-width="2.73"
     stroke-linejoin="bevel"
     points="435.977,1408.81 435.977,1489.18"
     id="polyline128"
     transform="matrix(0.30185443,0,0,0.30185443,-66.259188,-105.71637)" />
  <polyline
     class="Stem"
     fill="none"
     stroke="#000000"
     stroke-width="2.73"
     stroke-linejoin="bevel"
     points="622.163,1421.21 622.163,1498.48"
     id="polyline130"
     transform="matrix(0.30185443,0,0,0.30185443,-66.259188,-105.71637)" />
  <polyline
     class="Stem"
     fill="none"
     stroke="#000000"
     stroke-width="2.73"
     stroke-linejoin="bevel"
     points="864.793,1384.01 864.793,1467.48"
     id="polyline132"
     transform="matrix(0.30185443,0,0,0.30185443,-66.259188,-105.71637)" />
  <polyline
     class="Stem"
     fill="none"
     stroke="#000000"
     stroke-width="2.73"
     stroke-linejoin="bevel"
     points="1050.98,1396.41 1050.98,1479.88"
     id="polyline134"
     transform="matrix(0.30185443,0,0,0.30185443,-66.259188,-105.71637)" />
  <polyline
     class="Stem"
     fill="none"
     stroke="#000000"
     stroke-width="2.73"
     stroke-linejoin="bevel"
     points="1293.61,1396.41 1293.61,1479.88"
     id="polyline136"
     transform="matrix(0.30185443,0,0,0.30185443,-66.259188,-105.71637)" />
  <polyline
     class="Stem"
     fill="none"
     stroke="#000000"
     stroke-width="2.73"
     stroke-linejoin="bevel"
     points="1479.79,1408.81 1479.79,1489.18"
     id="polyline138"
     transform="matrix(0.30185443,0,0,0.30185443,-66.259188,-105.71637)" />
  <polyline
     class="Stem"
     fill="none"
     stroke="#000000"
     stroke-width="2.73"
     stroke-linejoin="bevel"
     points="1702.68,1371.61 1702.68,1455.08"
     id="polyline140"
     transform="matrix(0.30185443,0,0,0.30185443,-66.259188,-105.71637)" />
  <polyline
     class="Stem"
     fill="none"
     stroke="#000000"
     stroke-width="2.73"
     stroke-linejoin="bevel"
     points="1910.39,1384.01 1910.39,1467.48"
     id="polyline142"
     transform="matrix(0.30185443,0,0,0.30185443,-66.259188,-105.71637)" />
  <polyline
     class="Stem"
     fill="none"
     stroke="#000000"
     stroke-width="2.73"
     stroke-linejoin="bevel"
     points="520.359,494.624 520.359,410.999"
     id="polyline144"
     transform="matrix(0.30185443,0,0,0.30185443,-66.259188,-105.71637)" />
  <polyline
     class="Stem"
     fill="none"
     stroke="#000000"
     stroke-width="2.73"
     stroke-linejoin="bevel"
     points="692.487,457.424 692.487,376.899"
     id="polyline146"
     transform="matrix(0.30185443,0,0,0.30185443,-66.259188,-105.71637)" />
  <polyline
     class="Stem"
     fill="none"
     stroke="#000000"
     stroke-width="2.73"
     stroke-linejoin="bevel"
     points="909.999,507.024 909.999,423.399"
     id="polyline148"
     transform="matrix(0.30185443,0,0,0.30185443,-66.259188,-105.71637)" />
  <polyline
     class="Stem"
     fill="none"
     stroke="#000000"
     stroke-width="2.73"
     stroke-linejoin="bevel"
     points="1082.13,469.824 1082.13,386.199"
     id="polyline150"
     transform="matrix(0.30185443,0,0,0.30185443,-66.259188,-105.71637)" />
  <polyline
     class="Stem"
     fill="none"
     stroke="#000000"
     stroke-width="2.73"
     stroke-linejoin="bevel"
     points="1664.89,469.824 1664.89,392.399"
     id="polyline152"
     transform="matrix(0.30185443,0,0,0.30185443,-66.259188,-105.71637)" />
  <polyline
     class="Stem"
     fill="none"
     stroke="#000000"
     stroke-width="2.73"
     stroke-linejoin="bevel"
     points="1743.48,457.424 1743.48,386.199"
     id="polyline154"
     transform="matrix(0.30185443,0,0,0.30185443,-66.259188,-105.71637)" />
  <polyline
     class="Stem"
     fill="none"
     stroke="#000000"
     stroke-width="2.73"
     stroke-linejoin="bevel"
     points="1822.06,445.024 1822.06,367.599"
     id="polyline156"
     transform="matrix(0.30185443,0,0,0.30185443,-66.259188,-105.71637)" />
  <polyline
     class="Stem"
     fill="none"
     stroke="#000000"
     stroke-width="2.73"
     stroke-linejoin="bevel"
     points="1947.8,457.424 1947.8,386.199"
     id="polyline158"
     transform="matrix(0.30185443,0,0,0.30185443,-66.259188,-105.71637)" />
  <polyline
     class="Stem"
     fill="none"
     stroke="#000000"
     stroke-width="2.73"
     stroke-linejoin="bevel"
     points="2026.38,445.024 2026.38,379.999"
     id="polyline160"
     transform="matrix(0.30185443,0,0,0.30185443,-66.259188,-105.71637)" />
  <polyline
     class="Stem"
     fill="none"
     stroke="#000000"
     stroke-width="2.73"
     stroke-linejoin="bevel"
     points="2075.46,439.132 2075.46,513.299"
     id="polyline162"
     transform="matrix(0.30185443,0,0,0.30185443,-66.259188,-105.71637)" />
  <polyline
     class="Stem"
     fill="none"
     stroke="#000000"
     stroke-width="2.73"
     stroke-linejoin="bevel"
     points="2267.41,445.024 2267.41,367.599"
     id="polyline164"
     transform="matrix(0.30185443,0,0,0.30185443,-66.259188,-105.71637)" />
  <polyline
     class="Stem"
     fill="none"
     stroke="#000000"
     stroke-width="2.73"
     stroke-linejoin="bevel"
     points="2340.01,432.624 2340.01,361.399"
     id="polyline166"
     transform="matrix(0.30185443,0,0,0.30185443,-66.259188,-105.71637)" />
  <polyline
     class="Stem"
     fill="none"
     stroke="#000000"
     stroke-width="2.73"
     stroke-linejoin="bevel"
     points="2383.12,426.732 2383.12,503.999"
     id="polyline168"
     transform="matrix(0.30185443,0,0,0.30185443,-66.259188,-105.71637)" />
  <polyline
     class="Stem"
     fill="none"
     stroke="#000000"
     stroke-width="2.73"
     stroke-linejoin="bevel"
     points="2499.29,439.132 2499.29,510.199"
     id="polyline170"
     transform="matrix(0.30185443,0,0,0.30185443,-66.259188,-105.71637)" />
  <polyline
     class="Stem"
     fill="none"
     stroke="#000000"
     stroke-width="2.73"
     stroke-linejoin="bevel"
     points="2571.9,426.732 2571.9,503.999"
     id="polyline172"
     transform="matrix(0.30185443,0,0,0.30185443,-66.259188,-105.71637)" />
  <polyline
     class="Stem"
     fill="none"
     stroke="#000000"
     stroke-width="2.73"
     stroke-linejoin="bevel"
     points="2644.51,414.332 2644.51,494.699"
     id="polyline174"
     transform="matrix(0.30185443,0,0,0.30185443,-66.259188,-105.71637)" />
  <polyline
     class="Stem"
     fill="none"
     stroke="#000000"
     stroke-width="2.73"
     stroke-linejoin="bevel"
     points="465.481,1179.11 465.481,1101.68"
     id="polyline176"
     transform="matrix(0.30185443,0,0,0.30185443,-66.259188,-105.71637)" />
  <polyline
     class="Stem"
     fill="none"
     stroke="#000000"
     stroke-width="2.73"
     stroke-linejoin="bevel"
     points="529.07,1148.41 529.07,1228.78"
     id="polyline178"
     transform="matrix(0.30185443,0,0,0.30185443,-66.259188,-105.71637)" />
  <polyline
     class="Stem"
     fill="none"
     stroke="#000000"
     stroke-width="2.73"
     stroke-linejoin="bevel"
     points="651.668,1191.51 651.668,1110.98"
     id="polyline180"
     transform="matrix(0.30185443,0,0,0.30185443,-66.259188,-105.71637)" />
  <polyline
     class="Stem"
     fill="none"
     stroke="#000000"
     stroke-width="2.73"
     stroke-linejoin="bevel"
     points="715.256,1160.81 715.256,1238.08"
     id="polyline182"
     transform="matrix(0.30185443,0,0,0.30185443,-66.259188,-105.71637)" />
  <polyline
     class="Stem"
     fill="none"
     stroke="#000000"
     stroke-width="2.73"
     stroke-linejoin="bevel"
     points="894.297,1203.91 894.297,1120.28"
     id="polyline184"
     transform="matrix(0.30185443,0,0,0.30185443,-66.259188,-105.71637)" />
  <polyline
     class="Stem"
     fill="none"
     stroke="#000000"
     stroke-width="2.73"
     stroke-linejoin="bevel"
     points="957.886,1173.21 957.886,1247.38"
     id="polyline186"
     transform="matrix(0.30185443,0,0,0.30185443,-66.259188,-105.71637)" />
  <polyline
     class="Stem"
     fill="none"
     stroke="#000000"
     stroke-width="2.73"
     stroke-linejoin="bevel"
     points="1080.48,1216.31 1080.48,1132.68"
     id="polyline188"
     transform="matrix(0.30185443,0,0,0.30185443,-66.259188,-105.71637)" />
  <polyline
     class="Stem"
     fill="none"
     stroke="#000000"
     stroke-width="2.73"
     stroke-linejoin="bevel"
     points="1173.58,1179.11 1173.58,1101.68"
     id="polyline190"
     transform="matrix(0.30185443,0,0,0.30185443,-66.259188,-105.71637)" />
  <polyline
     class="Stem"
     fill="none"
     stroke="#000000"
     stroke-width="2.73"
     stroke-linejoin="bevel"
     points="1293.61,1173.21 1293.61,1247.38"
     id="polyline192"
     transform="matrix(0.30185443,0,0,0.30185443,-66.259188,-105.71637)" />
  <polyline
     class="Stem"
     fill="none"
     stroke="#000000"
     stroke-width="2.73"
     stroke-linejoin="bevel"
     points="1386.7,1136.01 1386.7,1219.48"
     id="polyline194"
     transform="matrix(0.30185443,0,0,0.30185443,-66.259188,-105.71637)" />
  <polyline
     class="Stem"
     fill="none"
     stroke="#000000"
     stroke-width="2.73"
     stroke-linejoin="bevel"
     points="1509.3,1179.11 1509.3,1101.68"
     id="polyline196"
     transform="matrix(0.30185443,0,0,0.30185443,-66.259188,-105.71637)" />
  <polyline
     class="Stem"
     fill="none"
     stroke="#000000"
     stroke-width="2.73"
     stroke-linejoin="bevel"
     points="1572.89,1148.41 1572.89,1228.78"
     id="polyline198"
     transform="matrix(0.30185443,0,0,0.30185443,-66.259188,-105.71637)" />
  <polyline
     class="Stem"
     fill="none"
     stroke="#000000"
     stroke-width="2.73"
     stroke-linejoin="bevel"
     points="1732.19,1191.51 1732.19,1110.98"
     id="polyline200"
     transform="matrix(0.30185443,0,0,0.30185443,-66.259188,-105.71637)" />
  <polyline
     class="Stem"
     fill="none"
     stroke="#000000"
     stroke-width="2.73"
     stroke-linejoin="bevel"
     points="1806.53,1160.81 1806.53,1238.08"
     id="polyline202"
     transform="matrix(0.30185443,0,0,0.30185443,-66.259188,-105.71637)" />
  <polyline
     class="Stem"
     fill="none"
     stroke="#000000"
     stroke-width="2.73"
     stroke-linejoin="bevel"
     points="1939.89,1203.91 1939.89,1120.28"
     id="polyline204"
     transform="matrix(0.30185443,0,0,0.30185443,-66.259188,-105.71637)" />
  <polyline
     class="Stem"
     fill="none"
     stroke="#000000"
     stroke-width="2.73"
     stroke-linejoin="bevel"
     points="2014.24,1173.21 2014.24,1247.38"
     id="polyline206"
     transform="matrix(0.30185443,0,0,0.30185443,-66.259188,-105.71637)" />
  <path
     class="Note"
     d="m 90.928192,94.51076 c -0.53806,-0.98722 -1.67497,-1.52528 -3.05522,-1.52528 -1.01528,0 -2.12416,0.29944 -3.20493,0.86556 -1.97445,1.04806 -3.17221,2.81662 -3.17221,4.3419 0,0.42108 0.0889,0.84217 0.29944,1.23051 0.53806,0.99188 1.67499,1.50189 3.05522,1.50189 1.01531,0 2.12416,-0.27138 3.20497,-0.83751 1.97441,-1.05272 3.17217,-2.82129 3.17217,-4.35124 0,-0.4164 -0.0889,-0.83749 -0.29944,-1.22583 m -1.28666,2.03525 c -0.50998,0.50999 -1.52993,1.13694 -2.60606,1.7405 -1.0761,0.59888 -2.15689,1.04804 -2.87275,1.19776 -0.14972,0.0328 -0.29944,0.0608 -0.44916,0.0608 -0.48191,0 -0.84218,-0.17779 -1.04804,-0.5708 -0.0936,-0.14972 -0.14972,-0.32752 -0.14972,-0.50999 0,-0.32751 0.20586,-0.72052 0.53806,-1.04804 0.50998,-0.50998 1.49719,-1.13693 2.57332,-1.73582 1.08079,-0.59887 2.15689,-1.04803 2.87744,-1.19775 0.14972,-0.0327 0.29944,-0.0608 0.44916,-0.0608 0.47721,0 0.86556,0.17779 1.07609,0.56613 0.0889,0.14972 0.12166,0.33219 0.12166,0.50998 0,0.33219 -0.18247,0.68778 -0.51,1.04804"
     id="path208"
     style="stroke-width:0.29944" />
  <path
     class="Note"
     d="m 142.88579,98.25375 c -0.53807,-0.98721 -1.67498,-1.52527 -3.05522,-1.52527 -1.01528,0 -2.12417,0.29944 -3.20493,0.86556 -1.97445,1.04806 -3.17221,2.81662 -3.17221,4.34189 0,0.42109 0.0889,0.84217 0.29944,1.23051 0.53806,0.99189 1.67499,1.5019 3.05522,1.5019 1.01531,0 2.12416,-0.27138 3.20497,-0.83751 1.97441,-1.05273 3.17217,-2.8213 3.17217,-4.35125 0,-0.4164 -0.0889,-0.83748 -0.29944,-1.22583 m -1.28666,2.03526 c -0.50998,0.50998 -1.52993,1.13694 -2.60606,1.7405 -1.0761,0.59887 -2.15689,1.04803 -2.87275,1.19775 -0.14972,0.0328 -0.29944,0.0608 -0.44916,0.0608 -0.48191,0 -0.84218,-0.17779 -1.04804,-0.57081 -0.0936,-0.14972 -0.14972,-0.32751 -0.14972,-0.50998 0,-0.32751 0.20586,-0.72053 0.53805,-1.04804 0.50999,-0.50999 1.4972,-1.13694 2.57333,-1.73582 1.08079,-0.59888 2.15689,-1.04804 2.87743,-1.19776 0.14972,-0.0328 0.29944,-0.0608 0.44916,-0.0608 0.47722,0 0.86557,0.17779 1.0761,0.56613 0.0889,0.14972 0.12166,0.33219 0.12166,0.50998 0,0.33219 -0.18247,0.68777 -0.51,1.04804"
     id="path210"
     style="stroke-width:0.29944" />
  <path
     class="Note"
     d="m 208.54275,87.02477 c -0.53807,-0.98722 -1.67498,-1.52528 -3.05522,-1.52528 -1.01528,0 -2.12417,0.29944 -3.20493,0.86556 -1.97445,1.04806 -3.17221,2.81662 -3.17221,4.3419 0,0.42108 0.0889,0.84217 0.29944,1.23051 0.53806,0.99188 1.67499,1.50189 3.05522,1.50189 1.01531,0 2.12416,-0.27138 3.20497,-0.8375 1.97441,-1.05273 3.17217,-2.82129 3.17217,-4.35125 0,-0.4164 -0.0889,-0.83749 -0.29944,-1.22583 m -1.28666,2.03525 c -0.50998,0.50999 -1.52993,1.13694 -2.60606,1.7405 -1.0761,0.59888 -2.15689,1.04804 -2.87275,1.19776 -0.14972,0.0328 -0.29944,0.0608 -0.44916,0.0608 -0.48191,0 -0.84218,-0.17778 -1.04804,-0.5708 -0.0936,-0.14972 -0.14972,-0.32752 -0.14972,-0.50999 0,-0.32751 0.20586,-0.72052 0.53805,-1.04804 0.50999,-0.50998 1.4972,-1.13693 2.57333,-1.73582 1.08079,-0.59887 2.15689,-1.04803 2.87743,-1.19775 0.14972,-0.0328 0.29944,-0.0608 0.44916,-0.0608 0.47722,0 0.86557,0.1778 1.0761,0.56613 0.0889,0.14972 0.12166,0.33219 0.12166,0.50998 0,0.33219 -0.18247,0.68778 -0.51,1.04804"
     id="path212"
     style="stroke-width:0.29944" />
  <path
     class="Note"
     d="m 260.50064,75.79578 c -0.53803,-0.98721 -1.67499,-1.52527 -3.05519,-1.52527 -1.01532,0 -2.12421,0.29944 -3.20497,0.86555 -1.97443,1.04807 -3.17219,2.81663 -3.17219,4.3419 0,0.42109 0.0889,0.84218 0.29944,1.23052 0.53809,0.99188 1.67499,1.50189 3.05519,1.50189 1.01532,0 2.12421,-0.27138 3.20497,-0.83751 1.97443,-1.05272 3.17219,-2.8213 3.17219,-4.35124 0,-0.41641 -0.0889,-0.83749 -0.29944,-1.22584 m -1.28662,2.03526 c -0.51002,0.50998 -1.52998,1.13694 -2.60609,1.7405 -1.07612,0.59888 -2.15688,1.04804 -2.87275,1.19775 -0.14972,0.0328 -0.29944,0.0608 -0.44916,0.0608 -0.48188,0 -0.84218,-0.17779 -1.04804,-0.57081 -0.0936,-0.14972 -0.14972,-0.32751 -0.14972,-0.50998 0,-0.32751 0.20586,-0.72053 0.53808,-1.04805 0.50996,-0.50997 1.49714,-1.13692 2.57331,-1.73581 1.08076,-0.59888 2.15687,-1.04804 2.8774,-1.19776 0.14972,-0.0327 0.29944,-0.0608 0.44916,-0.0608 0.47723,0 0.8656,0.17779 1.07611,0.56613 0.0889,0.14972 0.12165,0.33219 0.12165,0.50998 0,0.33219 -0.18244,0.68777 -0.50995,1.04804"
     id="path214"
     style="stroke-width:0.29944" />
  <path
     class="Note"
     d="m 436.40933,101.99675 c -0.53803,-0.98722 -1.67493,-1.52528 -3.05519,-1.52528 -1.01526,0 -2.12415,0.29944 -3.20491,0.86556 -1.97449,1.04805 -3.17225,2.81663 -3.17225,4.3419 0,0.42108 0.0889,0.84217 0.29944,1.23051 0.53808,0.99188 1.67499,1.50189 3.05525,1.50189 1.01532,0 2.12415,-0.27139 3.20497,-0.8375 1.97437,-1.05273 3.17213,-2.8213 3.17213,-4.35125 0,-0.41641 -0.0889,-0.8375 -0.29944,-1.22583 m -1.28663,2.03525 c -0.51001,0.50999 -1.52992,1.13694 -2.60609,1.7405 -1.07605,0.59888 -2.15687,1.04804 -2.87275,1.19776 -0.14972,0.0328 -0.29944,0.0608 -0.44916,0.0608 -0.48188,0 -0.84217,-0.17779 -1.04804,-0.5708 -0.0936,-0.14972 -0.14972,-0.32752 -0.14972,-0.50999 0,-0.32751 0.20587,-0.72052 0.53809,-1.04804 0.50995,-0.50998 1.4972,-1.13694 2.57331,-1.73582 1.08082,-0.59887 2.15687,-1.04803 2.87746,-1.19775 0.14972,-0.0328 0.29944,-0.0608 0.44916,-0.0608 0.47717,0 0.86553,0.17779 1.07605,0.56613 0.0889,0.14972 0.1217,0.33219 0.1217,0.50998 0,0.33219 -0.1825,0.68778 -0.51001,1.04804"
     id="path216"
     style="stroke-width:0.29944" />
  <path
     class="Note"
     d="m 521.80696,109.48274 c -0.53802,-0.98722 -1.67493,-1.52528 -3.05519,-1.52528 -1.01526,0 -2.12415,0.29944 -3.20491,0.86556 -1.97449,1.04806 -3.17225,2.81663 -3.17225,4.3419 0,0.42108 0.0889,0.84217 0.29944,1.23051 0.53809,0.99188 1.67499,1.50189 3.05525,1.50189 1.01532,0 2.12415,-0.27138 3.20497,-0.8375 1.97437,-1.05273 3.17213,-2.8213 3.17213,-4.35125 0,-0.4164 -0.0889,-0.8375 -0.29944,-1.22583 m -1.28662,2.03526 c -0.51002,0.50998 -1.52992,1.13693 -2.60609,1.74049 -1.07605,0.59888 -2.15687,1.04804 -2.87275,1.19776 -0.14972,0.0328 -0.29944,0.0608 -0.44916,0.0608 -0.48188,0 -0.84218,-0.17779 -1.04804,-0.57081 -0.0936,-0.14972 -0.14972,-0.32752 -0.14972,-0.50999 0,-0.32751 0.20587,-0.72052 0.53809,-1.04804 0.50995,-0.50998 1.49719,-1.13694 2.5733,-1.73582 1.08082,-0.59887 2.15688,-1.04803 2.87746,-1.19775 0.14972,-0.0327 0.29944,-0.0608 0.44916,-0.0608 0.47717,0 0.86554,0.17779 1.07605,0.56613 0.0889,0.14972 0.12171,0.33219 0.12171,0.50998 0,0.33219 -0.1825,0.68778 -0.51001,1.04804"
     id="path218"
     style="stroke-width:0.29944" />
  <path
     class="Note"
     d="m 74.363032,316.09636 c -0.53807,-0.98721 -1.67498,-1.5253 -3.05522,-1.5253 -1.01528,0 -2.12417,0.29944 -3.20494,0.86557 -1.97444,1.04807 -3.1722,2.81664 -3.1722,4.34191 0,0.42108 0.0889,0.84217 0.29944,1.2305 0.53805,0.9919 1.67499,1.50188 3.05521,1.50188 1.01531,0 2.12417,-0.27137 3.20497,-0.83749 1.97441,-1.05272 3.17218,-2.82129 3.17218,-4.35124 0,-0.4164 -0.0889,-0.83749 -0.29944,-1.22583 m -1.28667,2.03526 c -0.50998,0.50998 -1.52993,1.13693 -2.60605,1.7405 -1.0761,0.59888 -2.1569,1.04803 -2.87276,1.19775 -0.14972,0.0328 -0.29944,0.0608 -0.44916,0.0608 -0.48191,0 -0.84217,-0.17779 -1.04804,-0.57081 -0.0936,-0.14972 -0.14972,-0.32752 -0.14972,-0.50998 0,-0.32752 0.20587,-0.72053 0.53806,-1.04804 0.50998,-0.50998 1.49719,-1.13694 2.57332,-1.73582 1.0808,-0.59887 2.15689,-1.04804 2.87744,-1.19776 0.14972,-0.0327 0.29944,-0.0608 0.44916,-0.0608 0.47721,0 0.86556,0.17779 1.07609,0.56613 0.0889,0.14972 0.12167,0.33219 0.12167,0.50998 0,0.3322 -0.18248,0.68777 -0.51001,1.04804"
     id="path220"
     style="stroke-width:0.29944" />
  <path
     class="Note"
     d="m 130.56409,319.83936 c -0.53806,-0.98722 -1.67497,-1.5253 -3.05522,-1.5253 -1.01528,0 -2.12416,0.29944 -3.20493,0.86557 -1.97445,1.04806 -3.17221,2.81664 -3.17221,4.34191 0,0.42108 0.0889,0.84216 0.29944,1.2305 0.53806,0.99189 1.67499,1.50188 3.05522,1.50188 1.01531,0 2.12417,-0.27136 3.20497,-0.8375 1.97441,-1.05272 3.17217,-2.82128 3.17217,-4.35123 0,-0.41641 -0.0889,-0.8375 -0.29944,-1.22583 m -1.28666,2.03526 c -0.50998,0.50998 -1.52993,1.13693 -2.60606,1.74049 -1.0761,0.59888 -2.15689,1.04804 -2.87275,1.19776 -0.14972,0.0328 -0.29944,0.0608 -0.44916,0.0608 -0.48191,0 -0.84217,-0.17779 -1.04804,-0.5708 -0.0936,-0.14973 -0.14972,-0.32752 -0.14972,-0.50999 0,-0.32751 0.20587,-0.72052 0.53806,-1.04804 0.50998,-0.50998 1.49719,-1.13693 2.57332,-1.73581 1.08079,-0.59888 2.15689,-1.04804 2.87744,-1.19776 0.14972,-0.0328 0.29944,-0.0608 0.44916,-0.0608 0.47721,0 0.86556,0.17779 1.07609,0.56613 0.0889,0.14972 0.12166,0.33219 0.12166,0.50998 0,0.33219 -0.18247,0.68777 -0.51,1.04804"
     id="path222"
     style="stroke-width:0.29944" />
  <path
     class="Note"
     d="m 203.80303,308.61037 c -0.53806,-0.98721 -1.67497,-1.5253 -3.05522,-1.5253 -1.01528,0 -2.12416,0.29945 -3.20493,0.86557 -1.97445,1.04807 -3.17221,2.81664 -3.17221,4.34191 0,0.42108 0.0889,0.84217 0.29944,1.2305 0.53806,0.9919 1.67499,1.50188 3.05522,1.50188 1.01531,0 2.12417,-0.27137 3.20497,-0.83749 1.97441,-1.05272 3.17217,-2.82129 3.17217,-4.35124 0,-0.4164 -0.0889,-0.83749 -0.29944,-1.22583 m -1.28666,2.03526 c -0.50998,0.50998 -1.52993,1.13693 -2.60606,1.74049 -1.0761,0.59888 -2.15689,1.04804 -2.87275,1.19776 -0.14972,0.0328 -0.29944,0.0608 -0.44916,0.0608 -0.48191,0 -0.84217,-0.17779 -1.04804,-0.5708 -0.0936,-0.14972 -0.14972,-0.32752 -0.14972,-0.50999 0,-0.32751 0.20587,-0.72052 0.53806,-1.04804 0.50998,-0.50998 1.49719,-1.13693 2.57332,-1.73581 1.08079,-0.59888 2.15689,-1.04804 2.87744,-1.19776 0.14972,-0.0328 0.29944,-0.0608 0.44916,-0.0608 0.47721,0 0.86556,0.17779 1.07609,0.56613 0.0889,0.14972 0.12166,0.33219 0.12166,0.50998 0,0.33219 -0.18247,0.68777 -0.51,1.04804"
     id="path224"
     style="stroke-width:0.29944" />
  <path
     class="Note"
     d="m 260.00258,312.35337 c -0.53802,-0.98722 -1.67499,-1.5253 -3.05519,-1.5253 -1.01532,0 -2.12421,0.29944 -3.20497,0.86557 -1.97443,1.04807 -3.17219,2.81664 -3.17219,4.34191 0,0.42108 0.0889,0.84217 0.29944,1.2305 0.53809,0.9919 1.67499,1.50188 3.05519,1.50188 1.01532,0 2.12421,-0.27136 3.20497,-0.8375 1.97443,-1.05271 3.17219,-2.82128 3.17219,-4.35122 0,-0.41642 -0.0889,-0.8375 -0.29944,-1.22584 m -1.28662,2.03526 c -0.51002,0.50998 -1.52998,1.13693 -2.60609,1.74049 -1.07612,0.59888 -2.15687,1.04804 -2.87275,1.19776 -0.14972,0.0327 -0.29944,0.0608 -0.44916,0.0608 -0.48188,0 -0.84218,-0.17779 -1.04804,-0.5708 -0.0936,-0.14972 -0.14972,-0.32752 -0.14972,-0.50999 0,-0.32751 0.20586,-0.72052 0.53809,-1.04804 0.50995,-0.50998 1.49713,-1.13693 2.5733,-1.73581 1.08076,-0.59888 2.15687,-1.04804 2.8774,-1.19776 0.14972,-0.0328 0.29944,-0.0608 0.44916,-0.0608 0.47723,0 0.8656,0.17779 1.07611,0.56613 0.0889,0.14972 0.12165,0.33219 0.12165,0.50998 0,0.33219 -0.18244,0.68778 -0.50995,1.04804"
     id="path226"
     style="stroke-width:0.29944" />
  <path
     class="Note"
     d="m 333.24152,312.35337 c -0.53803,-0.98722 -1.67493,-1.5253 -3.05519,-1.5253 -1.01526,0 -2.12415,0.29944 -3.20491,0.86557 -1.97449,1.04807 -3.17225,2.81664 -3.17225,4.34191 0,0.42108 0.0889,0.84217 0.29944,1.2305 0.53809,0.9919 1.67499,1.50188 3.05525,1.50188 1.01532,0 2.12415,-0.27136 3.20497,-0.8375 1.97437,-1.05271 3.17213,-2.82128 3.17213,-4.35122 0,-0.41642 -0.0889,-0.8375 -0.29944,-1.22584 m -1.28662,2.03526 c -0.51002,0.50998 -1.52992,1.13693 -2.60609,1.74049 -1.07606,0.59888 -2.15688,1.04804 -2.87275,1.19776 -0.14972,0.0327 -0.29944,0.0608 -0.44916,0.0608 -0.48188,0 -0.84218,-0.17779 -1.04804,-0.5708 -0.0936,-0.14972 -0.14972,-0.32752 -0.14972,-0.50999 0,-0.32751 0.20586,-0.72052 0.53808,-1.04804 0.50996,-0.50998 1.4972,-1.13693 2.57331,-1.73581 1.08082,-0.59888 2.15687,-1.04804 2.87746,-1.19776 0.14972,-0.0328 0.29944,-0.0608 0.44916,-0.0608 0.47717,0 0.86554,0.17779 1.07605,0.56613 0.0889,0.14972 0.12171,0.33219 0.12171,0.50998 0,0.33219 -0.1825,0.68778 -0.51001,1.04804"
     id="path228"
     style="stroke-width:0.29944" />
  <path
     class="Note"
     d="m 389.4438,316.09636 c -0.53803,-0.98721 -1.67493,-1.5253 -3.05519,-1.5253 -1.01526,0 -2.12415,0.29944 -3.20491,0.86557 -1.97449,1.04807 -3.17225,2.81664 -3.17225,4.34191 0,0.42108 0.0889,0.84217 0.29944,1.2305 0.53808,0.9919 1.67499,1.50188 3.05525,1.50188 1.01532,0 2.12415,-0.27137 3.20497,-0.83749 1.97437,-1.05272 3.17213,-2.82129 3.17213,-4.35124 0,-0.4164 -0.0889,-0.83749 -0.29944,-1.22583 m -1.28663,2.03526 c -0.51001,0.50998 -1.52992,1.13693 -2.60609,1.7405 -1.07605,0.59888 -2.15687,1.04803 -2.87275,1.19775 -0.14972,0.0328 -0.29944,0.0608 -0.44916,0.0608 -0.48188,0 -0.84217,-0.17779 -1.04804,-0.57081 -0.0936,-0.14972 -0.14972,-0.32752 -0.14972,-0.50998 0,-0.32752 0.20587,-0.72053 0.53809,-1.04804 0.50995,-0.50998 1.4972,-1.13694 2.57331,-1.73582 1.08082,-0.59887 2.15687,-1.04804 2.87746,-1.19776 0.14972,-0.0327 0.29944,-0.0608 0.44916,-0.0608 0.47717,0 0.86553,0.17779 1.07605,0.56613 0.0889,0.14972 0.1217,0.33219 0.1217,0.50998 0,0.3322 -0.1825,0.68777 -0.51001,1.04804"
     id="path230"
     style="stroke-width:0.29944" />
  <path
     class="Note"
     d="m 456.72413,304.86738 c -0.53803,-0.98721 -1.67493,-1.5253 -3.05519,-1.5253 -1.01526,0 -2.12415,0.29944 -3.20491,0.86557 -1.97449,1.04807 -3.17225,2.81663 -3.17225,4.3419 0,0.42109 0.0889,0.84218 0.29944,1.23051 0.53809,0.9919 1.67499,1.50188 3.05525,1.50188 1.01532,0 2.12415,-0.27136 3.20497,-0.83749 1.97437,-1.05272 3.17213,-2.82129 3.17213,-4.35123 0,-0.41641 -0.0889,-0.8375 -0.29944,-1.22584 m -1.28663,2.03525 c -0.51001,0.50999 -1.52991,1.13694 -2.60609,1.7405 -1.07605,0.59887 -2.15687,1.04804 -2.87274,1.19775 -0.14972,0.0328 -0.29944,0.0608 -0.44916,0.0608 -0.48188,0 -0.84218,-0.17779 -1.04804,-0.57081 -0.0936,-0.14972 -0.14972,-0.32751 -0.14972,-0.50998 0,-0.32751 0.20586,-0.72053 0.53808,-1.04804 0.50996,-0.50998 1.4972,-1.13694 2.57331,-1.73581 1.08082,-0.59888 2.15687,-1.04804 2.87746,-1.19776 0.14972,-0.0328 0.29944,-0.0608 0.44916,-0.0608 0.47717,0 0.86554,0.1778 1.07605,0.56613 0.0889,0.14972 0.12171,0.33219 0.12171,0.50998 0,0.33219 -0.1825,0.68778 -0.51002,1.04804"
     id="path232"
     style="stroke-width:0.29944" />
  <path
     class="Note"
     d="m 519.41929,308.61037 c -0.53802,-0.98721 -1.67493,-1.5253 -3.05519,-1.5253 -1.01525,0 -2.12415,0.29945 -3.20491,0.86557 -1.97449,1.04807 -3.17224,2.81664 -3.17224,4.34191 0,0.42108 0.0889,0.84217 0.29944,1.2305 0.53808,0.9919 1.67499,1.50188 3.05525,1.50188 1.01531,0 2.12414,-0.27137 3.20496,-0.83749 1.97437,-1.05272 3.17213,-2.82129 3.17213,-4.35124 0,-0.4164 -0.0889,-0.83749 -0.29944,-1.22583 m -1.28662,2.03526 c -0.51001,0.50998 -1.52992,1.13693 -2.60609,1.74049 -1.07605,0.59888 -2.15687,1.04804 -2.87275,1.19776 -0.14972,0.0328 -0.29944,0.0608 -0.44916,0.0608 -0.48188,0 -0.84217,-0.17779 -1.04804,-0.5708 -0.0936,-0.14972 -0.14972,-0.32752 -0.14972,-0.50999 0,-0.32751 0.20587,-0.72052 0.53809,-1.04804 0.50995,-0.50998 1.4972,-1.13693 2.57331,-1.73581 1.08082,-0.59888 2.15687,-1.04804 2.87745,-1.19776 0.14972,-0.0328 0.29944,-0.0608 0.44916,-0.0608 0.47717,0 0.86554,0.17779 1.07605,0.56613 0.0889,0.14972 0.12171,0.33219 0.12171,0.50998 0,0.33219 -0.1825,0.68777 -0.51001,1.04804"
     id="path234"
     style="stroke-width:0.29944" />
  <path
     class="Note"
     d="m 90.928192,42.10883 c -0.53806,-0.98721 -1.67497,-1.52528 -3.05522,-1.52528 -1.01528,0 -2.12416,0.29944 -3.20493,0.86557 -1.97445,1.04805 -3.17221,2.81662 -3.17221,4.34189 0,0.42108 0.0889,0.84217 0.29944,1.23051 0.53806,0.99188 1.67499,1.50189 3.05522,1.50189 1.01531,0 2.12416,-0.27138 3.20497,-0.8375 1.97441,-1.05273 3.17217,-2.82129 3.17217,-4.35125 0,-0.4164 -0.0889,-0.83749 -0.29944,-1.22583 m -1.28666,2.03526 c -0.50998,0.50998 -1.52993,1.13693 -2.60606,1.74049 -1.0761,0.59888 -2.15689,1.04804 -2.87275,1.19776 -0.14972,0.0328 -0.29944,0.0608 -0.44916,0.0608 -0.48191,0 -0.84218,-0.17779 -1.04804,-0.57081 -0.0936,-0.14972 -0.14972,-0.32751 -0.14972,-0.50999 0,-0.32751 0.20586,-0.72052 0.53806,-1.04803 0.50998,-0.50999 1.49719,-1.13694 2.57332,-1.73582 1.08079,-0.59888 2.15689,-1.04804 2.87744,-1.19776 0.14972,-0.0328 0.29944,-0.0608 0.44916,-0.0608 0.47721,0 0.86556,0.1778 1.07609,0.56613 0.0889,0.14972 0.12166,0.3322 0.12166,0.50999 0,0.33219 -0.18247,0.68778 -0.51,1.04804"
     id="path236"
     style="stroke-width:0.29944" />
  <path
     class="Note"
     d="m 142.88579,30.87985 c -0.53807,-0.98722 -1.67498,-1.52528 -3.05522,-1.52528 -1.01528,0 -2.12417,0.29944 -3.20493,0.86556 -1.97445,1.04806 -3.17221,2.81662 -3.17221,4.34189 0,0.42109 0.0889,0.84218 0.29944,1.23052 0.53806,0.99188 1.67499,1.50189 3.05522,1.50189 1.01531,0 2.12416,-0.27138 3.20497,-0.8375 1.97441,-1.05273 3.17217,-2.8213 3.17217,-4.35125 0,-0.41641 -0.0889,-0.83749 -0.29944,-1.22583 m -1.28666,2.03525 c -0.50998,0.50999 -1.52993,1.13694 -2.60606,1.7405 -1.0761,0.59888 -2.15689,1.04804 -2.87275,1.19776 -0.14972,0.0328 -0.29944,0.0608 -0.44916,0.0608 -0.48191,0 -0.84218,-0.17779 -1.04804,-0.57081 -0.0936,-0.14972 -0.14972,-0.32751 -0.14972,-0.50998 0,-0.32751 0.20586,-0.72053 0.53805,-1.04804 0.50999,-0.50998 1.4972,-1.13693 2.57333,-1.73582 1.08079,-0.59888 2.15689,-1.04804 2.87743,-1.19776 0.14972,-0.0328 0.29944,-0.0608 0.44916,-0.0608 0.47722,0 0.86557,0.17779 1.0761,0.56613 0.0889,0.14972 0.12166,0.33219 0.12166,0.50998 0,0.33219 -0.18247,0.68778 -0.51,1.04804"
     id="path238"
     style="stroke-width:0.29944" />
  <path
     class="Note"
     d="m 208.54275,45.85183 c -0.53807,-0.98722 -1.67498,-1.52528 -3.05522,-1.52528 -1.01528,0 -2.12417,0.29944 -3.20493,0.86556 -1.97445,1.04805 -3.17221,2.81662 -3.17221,4.34189 0,0.42109 0.0889,0.84218 0.29944,1.23052 0.53806,0.99188 1.67499,1.50189 3.05522,1.50189 1.01531,0 2.12416,-0.27138 3.20497,-0.8375 1.97441,-1.05273 3.17217,-2.8213 3.17217,-4.35125 0,-0.41641 -0.0889,-0.8375 -0.29944,-1.22583 m -1.28666,2.03525 c -0.50998,0.50999 -1.52993,1.13694 -2.60606,1.7405 -1.0761,0.59888 -2.15689,1.04804 -2.87275,1.19776 -0.14972,0.0328 -0.29944,0.0608 -0.44916,0.0608 -0.48191,0 -0.84218,-0.1778 -1.04804,-0.57082 -0.0936,-0.14972 -0.14972,-0.32751 -0.14972,-0.50998 0,-0.32751 0.20586,-0.72053 0.53805,-1.04804 0.50999,-0.50999 1.4972,-1.13694 2.57333,-1.73582 1.08079,-0.59888 2.15689,-1.04804 2.87743,-1.19776 0.14972,-0.0328 0.29944,-0.0608 0.44916,-0.0608 0.47722,0 0.86557,0.1778 1.0761,0.56613 0.0889,0.14972 0.12166,0.33219 0.12166,0.50999 0,0.33218 -0.18247,0.68777 -0.51,1.04803"
     id="path240"
     style="stroke-width:0.29944" />
  <path
     class="Note"
     d="m 260.50064,34.62284 c -0.53803,-0.98721 -1.67499,-1.52528 -3.05519,-1.52528 -1.01532,0 -2.12421,0.29944 -3.20497,0.86556 -1.97443,1.04806 -3.17219,2.81663 -3.17219,4.3419 0,0.42108 0.0889,0.84217 0.29944,1.23051 0.53809,0.99189 1.67499,1.50189 3.05519,1.50189 1.01532,0 2.12421,-0.27138 3.20497,-0.8375 1.97443,-1.05273 3.17219,-2.82129 3.17219,-4.35125 0,-0.4164 -0.0889,-0.83749 -0.29944,-1.22583 m -1.28662,2.03525 c -0.51002,0.50999 -1.52998,1.13694 -2.60609,1.7405 -1.07612,0.59888 -2.15688,1.04804 -2.87275,1.19776 -0.14972,0.0328 -0.29944,0.0608 -0.44916,0.0608 -0.48188,0 -0.84218,-0.17779 -1.04804,-0.57081 -0.0936,-0.14972 -0.14972,-0.32751 -0.14972,-0.50998 0,-0.32752 0.20586,-0.72053 0.53808,-1.04805 0.50996,-0.50998 1.49714,-1.13693 2.57331,-1.73581 1.08076,-0.59888 2.15687,-1.04804 2.8774,-1.19776 0.14972,-0.0327 0.29944,-0.0608 0.44916,-0.0608 0.47723,0 0.8656,0.1778 1.07611,0.56613 0.0889,0.14972 0.12165,0.3322 0.12165,0.50999 0,0.33219 -0.18244,0.68777 -0.50995,1.04804"
     id="path242"
     style="stroke-width:0.29944" />
  <path
     class="Note"
     d="m 436.40933,34.63688 c -0.53803,-0.99191 -1.67493,-1.52995 -3.05519,-1.52995 -1.01526,0 -2.12415,0.29944 -3.20491,0.87024 -1.97449,1.04804 -3.17225,2.81193 -3.17225,4.34188 0,0.41641 0.0889,0.8375 0.29944,1.22583 0.53808,0.98723 1.67499,1.49721 3.05525,1.49721 1.01532,0 2.12415,-0.26668 3.20497,-0.8375 1.97437,-1.04804 3.17213,-2.81661 3.17213,-4.34188 0,-0.42108 -0.0889,-0.8375 -0.29944,-1.22583"
     id="path244"
     style="stroke-width:0.29944" />
  <path
     class="Note"
     d="m 460.13206,30.89389 c -0.53802,-0.99191 -1.67492,-1.52995 -3.05518,-1.52995 -1.01526,0 -2.12415,0.29944 -3.20491,0.87023 -1.97449,1.04805 -3.17225,2.81194 -3.17225,4.34189 0,0.41641 0.0889,0.83749 0.29944,1.22584 0.53808,0.98722 1.67499,1.49719 3.05525,1.49719 1.01531,0 2.12415,-0.26667 3.20497,-0.8375 1.97437,-1.04804 3.17212,-2.8166 3.17212,-4.34188 0,-0.42108 -0.0889,-0.83749 -0.29944,-1.22582"
     id="path246"
     style="stroke-width:0.29944" />
  <path
     class="Note"
     d="m 483.85179,27.15089 c -0.53803,-0.99191 -1.67493,-1.52995 -3.05519,-1.52995 -1.01526,0 -2.12415,0.29944 -3.20491,0.87024 -1.97449,1.04804 -3.17225,2.81194 -3.17225,4.34188 0,0.41641 0.0889,0.8375 0.29944,1.22584 0.53808,0.98723 1.67499,1.49721 3.05525,1.49721 1.01532,0 2.12415,-0.26669 3.20497,-0.83751 1.97437,-1.04804 3.17213,-2.81661 3.17213,-4.34188 0,-0.42109 -0.0889,-0.8375 -0.29944,-1.22583"
     id="path248"
     style="stroke-width:0.29944" />
  <path
     class="Note"
     d="m 521.80696,30.89389 c -0.53802,-0.99191 -1.67493,-1.52995 -3.05519,-1.52995 -1.01526,0 -2.12415,0.29944 -3.20491,0.87023 -1.97449,1.04805 -3.17225,2.81194 -3.17225,4.34189 0,0.41641 0.0889,0.83749 0.29944,1.22584 0.53809,0.98722 1.67499,1.49719 3.05525,1.49719 1.01532,0 2.12415,-0.26667 3.20497,-0.8375 1.97437,-1.04804 3.17213,-2.8166 3.17213,-4.34188 0,-0.42108 -0.0889,-0.83749 -0.29944,-1.22582"
     id="path250"
     style="stroke-width:0.29944" />
  <path
     class="Note"
     d="m 545.52668,27.15089 c -0.53802,-0.99191 -1.67493,-1.52995 -3.05519,-1.52995 -1.01525,0 -2.12415,0.29944 -3.20491,0.87024 -1.97449,1.04804 -3.17224,2.81194 -3.17224,4.34188 0,0.41641 0.0889,0.8375 0.29943,1.22584 0.53809,0.98723 1.67499,1.49721 3.05525,1.49721 1.01532,0 2.12415,-0.26669 3.20497,-0.83751 1.97437,-1.04804 3.17213,-2.81661 3.17213,-4.34188 0,-0.42109 -0.0889,-0.8375 -0.29944,-1.22583"
     id="path252"
     style="stroke-width:0.29944" />
  <path
     class="Note"
     d="m 569.24942,23.40789 c -0.53802,-0.9919 -1.67493,-1.52994 -3.05519,-1.52994 -1.01526,0 -2.12415,0.29944 -3.20491,0.87023 -1.97449,1.04805 -3.17225,2.81194 -3.17225,4.34189 0,0.41641 0.0889,0.83749 0.29944,1.22583 0.53809,0.98723 1.67499,1.49721 3.05525,1.49721 1.01532,0 2.12415,-0.26668 3.20497,-0.83751 1.97437,-1.04804 3.17213,-2.8166 3.17213,-4.34188 0,-0.42108 -0.0889,-0.83749 -0.29944,-1.22583"
     id="path254"
     style="stroke-width:0.29944" />
  <path
     class="Note"
     d="m 618.28266,27.15089 c -0.53802,-0.99191 -1.67493,-1.52995 -3.05519,-1.52995 -1.01526,0 -2.12415,0.29944 -3.20491,0.87024 -1.97449,1.04804 -3.17225,2.81194 -3.17225,4.34188 0,0.41641 0.0889,0.8375 0.29944,1.22584 0.53809,0.98723 1.67499,1.49721 3.05525,1.49721 1.01532,0 2.12415,-0.26669 3.20497,-0.83751 1.97437,-1.04804 3.17213,-2.81661 3.17213,-4.34188 0,-0.42109 -0.0889,-0.8375 -0.29944,-1.22583"
     id="path256"
     style="stroke-width:0.29944" />
  <path
     class="Note"
     d="m 640.19729,23.40789 c -0.53802,-0.9919 -1.67493,-1.52994 -3.05519,-1.52994 -1.01525,0 -2.12415,0.29944 -3.20491,0.87023 -1.97449,1.04805 -3.17225,2.81194 -3.17225,4.34189 0,0.41641 0.0889,0.83749 0.29944,1.22583 0.53809,0.98723 1.67499,1.49721 3.05525,1.49721 1.01532,0 2.12415,-0.26668 3.20497,-0.83751 1.97437,-1.04804 3.17213,-2.8166 3.17213,-4.34188 0,-0.42108 -0.0889,-0.83749 -0.29944,-1.22583"
     id="path258"
     style="stroke-width:0.29944" />
  <path
     class="Note"
     d="m 662.11494,19.6649 c -0.53802,-0.99191 -1.67493,-1.52995 -3.05519,-1.52995 -1.01525,0 -2.12415,0.29944 -3.20491,0.87024 -1.97449,1.04804 -3.17225,2.81194 -3.17225,4.34188 0,0.41641 0.0889,0.8375 0.29944,1.22584 0.53809,0.98723 1.67499,1.49721 3.05525,1.49721 1.01532,0 2.12415,-0.26669 3.20497,-0.83751 1.97437,-1.04804 3.17213,-2.81661 3.17213,-4.34188 0,-0.42109 -0.0889,-0.8375 -0.29944,-1.22583"
     id="path260"
     style="stroke-width:0.29944" />
  <path
     class="Note"
     d="m 697.18439,23.40789 c -0.53803,-0.9919 -1.67493,-1.52994 -3.05519,-1.52994 -1.01526,0 -2.12415,0.29944 -3.20491,0.87023 -1.97449,1.04805 -3.17225,2.81194 -3.17225,4.34189 0,0.41641 0.0889,0.83749 0.29944,1.22583 0.53809,0.98723 1.67499,1.49721 3.05525,1.49721 1.01532,0 2.12415,-0.26668 3.20497,-0.83751 1.97437,-1.04804 3.17213,-2.8166 3.17213,-4.34188 0,-0.42108 -0.0889,-0.83749 -0.29944,-1.22583"
     id="path262"
     style="stroke-width:0.29944" />
  <path
     class="Note"
     d="m 719.09902,19.6649 c -0.53803,-0.99191 -1.67493,-1.52995 -3.05519,-1.52995 -1.01526,0 -2.12415,0.29944 -3.20491,0.87024 -1.97449,1.04804 -3.17225,2.81194 -3.17225,4.34188 0,0.41641 0.0889,0.8375 0.29944,1.22584 0.53809,0.98723 1.67499,1.49721 3.05525,1.49721 1.01532,0 2.12415,-0.26669 3.20497,-0.83751 1.97437,-1.04804 3.17213,-2.81661 3.17213,-4.34188 0,-0.42109 -0.0889,-0.8375 -0.29944,-1.22583"
     id="path264"
     style="stroke-width:0.29944" />
  <path
     class="Note"
     d="m 741.01667,15.9219 c -0.53803,-0.9919 -1.67493,-1.52994 -3.05519,-1.52994 -1.01526,0 -2.12415,0.29944 -3.20491,0.87023 -1.97449,1.04805 -3.17225,2.81194 -3.17225,4.34189 0,0.41641 0.0889,0.83749 0.29944,1.22583 0.53809,0.98723 1.67499,1.49721 3.05525,1.49721 1.01532,0 2.12415,-0.26668 3.20497,-0.83751 1.97437,-1.04804 3.17213,-2.8166 3.17213,-4.34188 0,-0.42108 -0.0889,-0.83749 -0.29944,-1.22583"
     id="path266"
     style="stroke-width:0.29944" />
  <path
     class="Note"
     d="m 74.363032,248.73649 c -0.53807,-0.99192 -1.67498,-1.52995 -3.05522,-1.52995 -1.01528,0 -2.12417,0.29945 -3.20494,0.87024 -1.97444,1.04804 -3.1722,2.81193 -3.1722,4.34188 0,0.41641 0.0889,0.8375 0.29944,1.22583 0.53805,0.98723 1.67499,1.49721 3.05521,1.49721 1.01531,0 2.12417,-0.26668 3.20497,-0.8375 1.97441,-1.04804 3.17218,-2.81661 3.17218,-4.34188 0,-0.42108 -0.0889,-0.8375 -0.29944,-1.22583"
     id="path268"
     style="stroke-width:0.29944" />
  <path
     class="Note"
     d="m 102.46356,237.50751 c -0.53807,-0.99191 -1.67498,-1.52995 -3.055218,-1.52995 -1.01528,0 -2.12417,0.29944 -3.20493,0.87023 -1.97445,1.04805 -3.17221,2.81194 -3.17221,4.34189 0,0.41641 0.0889,0.83749 0.29944,1.22584 0.53806,0.98722 1.67499,1.4972 3.05521,1.4972 1.01532,0 2.12417,-0.26668 3.20497,-0.83751 1.974418,-1.04804 3.172178,-2.8166 3.172178,-4.34187 0,-0.42109 -0.0889,-0.8375 -0.29944,-1.22583"
     id="path270"
     style="stroke-width:0.29944" />
  <path
     class="Note"
     d="m 130.56409,252.47948 c -0.53806,-0.9919 -1.67497,-1.52994 -3.05522,-1.52994 -1.01528,0 -2.12416,0.29944 -3.20493,0.87023 -1.97445,1.04805 -3.17221,2.81194 -3.17221,4.34189 0,0.41641 0.0889,0.83749 0.29944,1.22584 0.53806,0.98722 1.67499,1.4972 3.05522,1.4972 1.01531,0 2.12417,-0.26668 3.20497,-0.83751 1.97441,-1.04804 3.17217,-2.81661 3.17217,-4.34187 0,-0.42109 -0.0889,-0.8375 -0.29944,-1.22584"
     id="path272"
     style="stroke-width:0.29944" />
  <path
     class="Note"
     d="m 158.66463,241.2505 c -0.53807,-0.99191 -1.67498,-1.52995 -3.05522,-1.52995 -1.01528,0 -2.12417,0.29944 -3.20493,0.87024 -1.97445,1.04804 -3.17221,2.81193 -3.17221,4.34188 0,0.41641 0.0889,0.8375 0.29944,1.22584 0.53805,0.98723 1.67499,1.4972 3.05521,1.4972 1.01531,0 2.12417,-0.26668 3.20497,-0.8375 1.97441,-1.04804 3.17218,-2.81661 3.17218,-4.34188 0,-0.42108 -0.0889,-0.8375 -0.29944,-1.22583"
     id="path274"
     style="stroke-width:0.29944" />
  <path
     class="Note"
     d="m 203.80303,256.22248 c -0.53806,-0.99191 -1.67497,-1.52995 -3.05522,-1.52995 -1.01528,0 -2.12416,0.29945 -3.20493,0.87024 -1.97445,1.04804 -3.17221,2.81193 -3.17221,4.34188 0,0.41641 0.0889,0.8375 0.29944,1.22584 0.53806,0.98723 1.67499,1.4972 3.05522,1.4972 1.01531,0 2.12417,-0.26668 3.20497,-0.8375 1.97441,-1.04804 3.17217,-2.81661 3.17217,-4.34188 0,-0.42108 -0.0889,-0.8375 -0.29944,-1.22583"
     id="path276"
     style="stroke-width:0.29944" />
  <path
     class="Note"
     d="m 231.90356,244.9935 c -0.53803,-0.99192 -1.67499,-1.52995 -3.05519,-1.52995 -1.01532,0 -2.12421,0.29944 -3.20497,0.87023 -1.97443,1.04805 -3.17219,2.81193 -3.17219,4.34189 0,0.41641 0.0889,0.83749 0.29944,1.22584 0.53808,0.98722 1.67499,1.4972 3.05519,1.4972 1.01532,0 2.12421,-0.26668 3.20497,-0.83751 1.97443,-1.04804 3.17219,-2.8166 3.17219,-4.34188 0,-0.42108 -0.0889,-0.83749 -0.29944,-1.22582"
     id="path278"
     style="stroke-width:0.29944" />
  <path
     class="Note"
     d="m 260.00258,259.96548 c -0.53802,-0.99191 -1.67499,-1.52995 -3.05519,-1.52995 -1.01532,0 -2.12421,0.29944 -3.20497,0.87023 -1.97443,1.04805 -3.17219,2.81194 -3.17219,4.34189 0,0.41641 0.0889,0.83749 0.29944,1.22583 0.53809,0.98723 1.67499,1.49721 3.05519,1.49721 1.01532,0 2.12421,-0.26668 3.20497,-0.83751 1.97443,-1.04804 3.17219,-2.8166 3.17219,-4.34187 0,-0.42109 -0.0889,-0.8375 -0.29944,-1.22583"
     id="path280"
     style="stroke-width:0.29944" />
  <path
     class="Note"
     d="m 288.10523,248.73649 c -0.53803,-0.99192 -1.67499,-1.52995 -3.05519,-1.52995 -1.01532,0 -2.12421,0.29945 -3.20497,0.87024 -1.97443,1.04804 -3.17219,2.81193 -3.17219,4.34188 0,0.41641 0.0889,0.8375 0.29944,1.22583 0.53809,0.98723 1.67499,1.49721 3.05519,1.49721 1.01532,0 2.12421,-0.26668 3.20497,-0.8375 1.97443,-1.04804 3.17219,-2.81661 3.17219,-4.34188 0,-0.42108 -0.0889,-0.8375 -0.29944,-1.22583"
     id="path282"
     style="stroke-width:0.29944" />
  <path
     class="Note"
     d="m 333.24152,244.9935 c -0.53803,-0.99192 -1.67493,-1.52995 -3.05519,-1.52995 -1.01526,0 -2.12415,0.29944 -3.20491,0.87023 -1.97449,1.04805 -3.17225,2.81193 -3.17225,4.34189 0,0.41641 0.0889,0.83749 0.29944,1.22584 0.53809,0.98722 1.67499,1.4972 3.05525,1.4972 1.01532,0 2.12415,-0.26668 3.20497,-0.83751 1.97437,-1.04804 3.17213,-2.8166 3.17213,-4.34188 0,-0.42108 -0.0889,-0.83749 -0.29944,-1.22582"
     id="path284"
     style="stroke-width:0.29944" />
  <path
     class="Note"
     d="m 361.34417,233.76451 c -0.53803,-0.99191 -1.67493,-1.52995 -3.05519,-1.52995 -1.01526,0 -2.12415,0.29945 -3.20491,0.87024 -1.97449,1.04804 -3.17225,2.81193 -3.17225,4.34188 0,0.41641 0.0889,0.8375 0.29944,1.22584 0.53809,0.98723 1.67499,1.4972 3.05525,1.4972 1.01532,0 2.12415,-0.26668 3.20497,-0.8375 1.97437,-1.04804 3.17213,-2.81661 3.17213,-4.34188 0,-0.42108 -0.0889,-0.8375 -0.29944,-1.22583"
     id="path286"
     style="stroke-width:0.29944" />
  <path
     class="Note"
     d="m 389.4438,248.73649 c -0.53803,-0.99192 -1.67493,-1.52995 -3.05519,-1.52995 -1.01526,0 -2.12415,0.29945 -3.20491,0.87024 -1.97449,1.04804 -3.17225,2.81193 -3.17225,4.34188 0,0.41641 0.0889,0.8375 0.29944,1.22583 0.53808,0.98723 1.67499,1.49721 3.05525,1.49721 1.01532,0 2.12415,-0.26668 3.20497,-0.8375 1.97437,-1.04804 3.17213,-2.81661 3.17213,-4.34188 0,-0.42108 -0.0889,-0.8375 -0.29944,-1.22583"
     id="path288"
     style="stroke-width:0.29944" />
  <path
     class="Note"
     d="m 417.54342,237.50751 c -0.53802,-0.99191 -1.67493,-1.52995 -3.05519,-1.52995 -1.01525,0 -2.12415,0.29944 -3.2049,0.87023 -1.97449,1.04805 -3.17225,2.81194 -3.17225,4.34189 0,0.41641 0.0889,0.83749 0.29944,1.22584 0.53808,0.98722 1.67499,1.4972 3.05525,1.4972 1.01531,0 2.12415,-0.26668 3.20497,-0.83751 1.97437,-1.04804 3.17212,-2.8166 3.17212,-4.34187 0,-0.42109 -0.0889,-0.8375 -0.29944,-1.22583"
     id="path290"
     style="stroke-width:0.29944" />
  <path
     class="Note"
     d="m 456.72413,252.47948 c -0.53803,-0.9919 -1.67493,-1.52994 -3.05519,-1.52994 -1.01526,0 -2.12415,0.29944 -3.20491,0.87023 -1.97449,1.04805 -3.17225,2.81194 -3.17225,4.34189 0,0.41641 0.0889,0.83749 0.29944,1.22584 0.53809,0.98722 1.67499,1.4972 3.05525,1.4972 1.01532,0 2.12415,-0.26668 3.20497,-0.83751 1.97437,-1.04804 3.17213,-2.81661 3.17213,-4.34187 0,-0.42109 -0.0889,-0.8375 -0.29944,-1.22584"
     id="path292"
     style="stroke-width:0.29944" />
  <path
     class="Note"
     d="m 488.07171,241.2505 c -0.53802,-0.99191 -1.67493,-1.52995 -3.05519,-1.52995 -1.01526,0 -2.12415,0.29944 -3.20491,0.87024 -1.97449,1.04804 -3.17225,2.81193 -3.17225,4.34188 0,0.41641 0.0889,0.8375 0.29944,1.22584 0.53809,0.98723 1.67499,1.4972 3.05525,1.4972 1.01532,0 2.12415,-0.26668 3.20497,-0.8375 1.97437,-1.04804 3.17213,-2.81661 3.17213,-4.34188 0,-0.42108 -0.0889,-0.8375 -0.29944,-1.22583"
     id="path294"
     style="stroke-width:0.29944" />
  <path
     class="Note"
     d="m 519.41929,256.22248 c -0.53802,-0.99191 -1.67493,-1.52995 -3.05519,-1.52995 -1.01525,0 -2.12415,0.29945 -3.20491,0.87024 -1.97449,1.04804 -3.17224,2.81193 -3.17224,4.34188 0,0.41641 0.0889,0.8375 0.29944,1.22584 0.53808,0.98723 1.67499,1.4972 3.05525,1.4972 1.01531,0 2.12414,-0.26668 3.20496,-0.8375 1.97437,-1.04804 3.17213,-2.81661 3.17213,-4.34188 0,-0.42108 -0.0889,-0.8375 -0.29944,-1.22583"
     id="path296"
     style="stroke-width:0.29944" />
  <path
     class="Note"
     d="m 550.76687,244.9935 c -0.53802,-0.99192 -1.67492,-1.52995 -3.05518,-1.52995 -1.01526,0 -2.12415,0.29944 -3.20491,0.87023 -1.97449,1.04805 -3.17225,2.81193 -3.17225,4.34189 0,0.41641 0.0889,0.83749 0.29944,1.22584 0.53808,0.98722 1.67499,1.4972 3.05525,1.4972 1.01531,0 2.12415,-0.26668 3.20497,-0.83751 1.97437,-1.04804 3.17212,-2.8166 3.17212,-4.34188 0,-0.42108 -0.0889,-0.83749 -0.29944,-1.22582"
     id="path298"
     style="stroke-width:0.29944" />
  <path
     class="Clef"
     d="m 34.163122,93.23345 c 0,0.84219 0.65969,1.49722 1.44106,1.49722 0.77665,0 1.43638,-0.65503 1.43638,-1.49722 0,-0.83748 -0.65973,-1.52526 -1.43638,-1.52526 -0.78137,0 -1.44106,0.68778 -1.44106,1.52526 m 0,7.39712 c 0,0.8375 0.65969,1.52996 1.44106,1.52996 0.77665,0 1.43638,-0.69246 1.43638,-1.52996 0,-0.8375 -0.65973,-1.52527 -1.43638,-1.52527 -0.78137,0 -1.44106,0.68777 -1.44106,1.52527 m -6.46604,13.11921 v -0.0328 c 0,-0.38835 -0.27135,-0.89832 -0.57079,-1.13695 -0.35559,-0.27134 -0.86556,-0.42106 -1.43639,-0.42106 -0.68778,0 -1.31939,0.21053 -1.76855,0.59887 -0.44916,0.39302 -0.68778,0.93108 -0.68778,1.52996 0,0.56612 0.18247,0.98719 0.63163,1.4083 -0.33219,0.14972 -0.59888,0.26668 -0.84217,0.44916 -0.44916,0.35558 -0.71587,0.86556 -0.71587,1.37553 0,0.98723 0.89832,1.64692 2.21307,1.64692 1.61883,0 2.75578,-0.89832 2.75578,-2.18495 0,-0.65972 -0.32753,-1.2586 -0.86556,-1.64692 0.86556,-0.36028 1.28663,-0.87026 1.28663,-1.5861 m -2.51716,0.8375 -0.0281,-0.0328 c -0.48188,-0.26668 -0.59888,-0.44916 -0.59888,-0.8375 0,-0.53807 0.38834,-0.92638 0.98722,-0.92638 0.59888,0 0.93109,0.36026 0.93109,0.98719 0,0.47725 -0.14972,0.80945 -0.63165,1.1697 -0.4164,-0.21053 -0.53806,-0.29944 -0.65969,-0.36025 m -0.77669,1.52525 c 0.11699,0.0608 0.14972,0.0608 0.23862,0.12167 0.36026,0.17777 0.36026,0.21053 0.42111,0.23859 0.56612,0.32753 0.80941,0.62697 0.80941,1.04804 0,0.57082 -0.50997,1.01998 -1.1697,1.01998 -0.65969,0 -1.08077,-0.4211 -1.08077,-1.04803 0,-0.57083 0.27136,-1.08081 0.78133,-1.38025 m 0.36029,-26.67823 c -2.27856,0 -4.10329,1.31475 -4.13602,1.31475 -1.73583,1.28663 -2.4236,2.81659 -2.69497,3.86463 -0.14972,0.53806 -0.20586,1.07611 -0.20586,1.5861 0,0.72053 0.11696,1.37555 0.38833,1.94636 0.36026,0.80942 1.04804,1.37555 1.94636,1.67499 0.38833,0.12165 0.77668,0.18247 1.19775,0.18247 0.65973,0 1.31475,-0.14971 1.85749,-0.48191 0.92638,-0.5053 1.4972,-1.61417 1.4972,-2.78385 0,-1.04805 -0.54274,-2.00718 -1.44106,-2.57332 -0.62696,-0.42107 -1.22584,-0.53806 -1.73582,-0.53806 -0.36026,0 -0.68779,0.0561 -0.95914,0.14972 -0.29943,0.11698 -0.80476,0.41642 -1.04805,0.62696 0.0936,-0.57082 0.44916,-1.43638 0.78134,-1.9183 0.32753,-0.47722 0.98722,-1.0761 1.4972,-1.34748 0.7486,-0.4164 1.70777,-0.59888 2.7558,-0.59888 3.05522,0 4.55242,2.45636 4.55242,7.48601 0,2.78855 -1.04804,5.45075 -1.94636,7.2193 -0.99189,1.97445 -2.30661,3.86466 -3.47631,4.9127 -3.11604,2.84468 -6.04963,4.19216 -6.0777,4.19216 0,0 -0.44916,0.26668 -0.33219,0.71584 0.0936,0.29944 0.36026,0.36026 0.54274,0.36026 0.0281,0 0.11696,-0.0281 0.14972,-0.0281 0.0281,0 3.44357,-1.44105 6.16659,-3.56522 1.52995,-1.10885 2.90549,-2.27386 4.10325,-3.56519 1.07613,-1.165 2.03526,-2.42361 2.78386,-3.68218 1.31942,-2.2458 2.03526,-4.5805 2.03526,-6.58768 0,-2.48442 -0.65502,-4.55241 -1.88554,-6.01688 -1.40829,-1.67965 -3.53246,-2.54524 -6.31629,-2.54524"
     id="path300"
     style="stroke-width:0.29944" />
  <path
     class="Clef"
     d="m 34.163122,314.81904 c 0,0.84221 0.65969,1.49723 1.44106,1.49723 0.77665,0 1.43638,-0.65502 1.43638,-1.49723 0,-0.83746 -0.65973,-1.52524 -1.43638,-1.52524 -0.78137,0 -1.44106,0.68778 -1.44106,1.52524 m 0,7.39713 c 0,0.83749 0.65969,1.52998 1.44106,1.52998 0.77665,0 1.43638,-0.69249 1.43638,-1.52998 0,-0.8375 -0.65973,-1.52528 -1.43638,-1.52528 -0.78137,0 -1.44106,0.68778 -1.44106,1.52528 m -6.46604,13.11922 v -0.0328 c 0,-0.38833 -0.27135,-0.89832 -0.57079,-1.13693 -0.35559,-0.27134 -0.86556,-0.42106 -1.43639,-0.42106 -0.68778,0 -1.31939,0.21051 -1.76855,0.59887 -0.44916,0.39302 -0.68778,0.93107 -0.68778,1.52996 0,0.56613 0.18247,0.98718 0.63163,1.4083 -0.33219,0.14972 -0.59888,0.26666 -0.84217,0.44916 -0.44916,0.35559 -0.71587,0.86557 -0.71587,1.37552 0,0.98725 0.89832,1.64692 2.21307,1.64692 1.61883,0 2.75578,-0.89832 2.75578,-2.18494 0,-0.65974 -0.32753,-1.25862 -0.86556,-1.64692 0.86556,-0.3603 1.28663,-0.87028 1.28663,-1.5861 m -2.51716,0.8375 -0.0281,-0.0328 c -0.48188,-0.26669 -0.59888,-0.44916 -0.59888,-0.83753 0,-0.53805 0.38834,-0.92636 0.98722,-0.92636 0.59888,0 0.93109,0.36026 0.93109,0.98719 0,0.47726 -0.14972,0.80945 -0.63165,1.16971 -0.4164,-0.21054 -0.53806,-0.29944 -0.65969,-0.36026 m -0.77669,1.52524 c 0.11699,0.0608 0.14972,0.0608 0.23862,0.12168 0.36026,0.17776 0.36026,0.21054 0.42111,0.23858 0.56612,0.32754 0.80941,0.62698 0.80941,1.04804 0,0.57084 -0.50997,1.02 -1.1697,1.02 -0.65969,0 -1.08077,-0.42112 -1.08077,-1.04804 0,-0.57084 0.27136,-1.08082 0.78133,-1.38026 m 0.36029,-26.67823 c -2.27856,0 -4.10329,1.31476 -4.13602,1.31476 -1.73583,1.28662 -2.4236,2.81657 -2.69497,3.86464 -0.14972,0.53806 -0.20586,1.07611 -0.20586,1.5861 0,0.72052 0.11696,1.37555 0.38833,1.94635 0.36026,0.80943 1.04804,1.37555 1.94636,1.67499 0.38833,0.12165 0.77668,0.18247 1.19775,0.18247 0.65973,0 1.31475,-0.14972 1.85749,-0.48191 0.92638,-0.5053 1.4972,-1.61416 1.4972,-2.78385 0,-1.04804 -0.54274,-2.00718 -1.44106,-2.57331 -0.62696,-0.42108 -1.22584,-0.53808 -1.73582,-0.53808 -0.36026,0 -0.68779,0.0561 -0.95914,0.14972 -0.29943,0.117 -0.80476,0.41644 -1.04805,0.62698 0.0936,-0.57084 0.44916,-1.43641 0.78134,-1.91832 0.32753,-0.4772 0.98722,-1.07608 1.4972,-1.34747 0.7486,-0.41641 1.70777,-0.59888 2.7558,-0.59888 3.05522,0 4.55242,2.45637 4.55242,7.48602 0,2.78853 -1.04804,5.45073 -1.94636,7.2193 -0.99189,1.97443 -2.30661,3.86464 -3.47631,4.91271 -3.11604,2.84467 -6.04963,4.19215 -6.0777,4.19215 0,0 -0.44916,0.26666 -0.33219,0.71582 0.0936,0.29944 0.36026,0.36026 0.54274,0.36026 0.0281,0 0.11696,-0.0281 0.14972,-0.0281 0.0281,0 3.44357,-1.44105 6.16659,-3.56523 1.52995,-1.10886 2.90549,-2.27384 4.10325,-3.5652 1.07613,-1.16498 2.03526,-2.42359 2.78386,-3.68218 1.31942,-2.24579 2.03526,-4.58049 2.03526,-6.58767 0,-2.48441 -0.65502,-4.55241 -1.88554,-6.01689 -1.40829,-1.67964 -3.53246,-2.54524 -6.31629,-2.54524"
     id="path302"
     style="stroke-width:0.29944" />
  <path
     class="Clef"
     d="m 36.132872,31.54423 c -0.36963,-1.62354 -1.16034,-2.76982 -1.39425,-3.07861 -0.95447,-1.28199 -2.15693,-2.13351 -3.56055,-2.54057 -0.93105,-0.26201 -1.82937,-0.29944 -2.55458,-0.24329 -0.30882,-1.80131 -0.60826,-3.56052 -0.87961,-5.19343 1.6282,-1.84341 2.71367,-3.5839 3.39208,-4.87057 1.0387,-1.96975 1.38491,-3.34061 1.39896,-3.40145 0.51464,-1.56269 0.62226,-3.86463 0.29477,-6.32567 C 32.525552,3.63082 31.898612,1.61907 31.196782,0.64589 30.888002,0.22009 30.574522,0 30.261032,0 c -0.36493,0 -1.11353,0.36981 -1.97909,1.20254 -0.68778,0.65488 -1.67033,1.82 -2.43765,3.62134 -0.89832,2.1148 -0.95913,4.95481 -0.85618,6.97135 0.11695,2.17561 0.44916,3.87867 0.44916,3.89272 0.009,0.0281 0.0842,0.47722 0.21987,1.24923 -0.0702,0.0655 -0.14035,0.13568 -0.21521,0.20587 -0.31348,0.29944 -0.66906,0.64098 -1.08079,1.05271 -0.25734,0.25734 -0.54274,0.53336 -0.84218,0.82346 -2.53119,2.43762 -6.36309,6.12915 -6.36309,11.8653 0,1.40831 0.27136,2.7324 0.80474,3.93483 0.47255,1.07612 1.16033,2.05865 2.03993,2.91953 2.31599,2.25985 5.48817,3.22369 7.59829,3.17221 0.88427,-0.0187 1.67501,-0.0889 2.39085,-0.22458 0.54741,2.87744 0.88895,4.98286 0.89832,6.58301 0.014,1.94636 -0.48192,3.13942 -1.64692,3.96758 -0.72988,0.51932 -1.57206,0.80475 -2.49847,0.84684 -0.77666,0.0374 -1.45506,-0.10294 -1.88084,-0.22458 h -0.005 c 0,0 -0.0842,-0.0281 -0.0889,-0.0842 -0.005,-0.0562 0.10292,-0.0702 0.10292,-0.0702 h 0.009 c 0.57549,-0.13101 1.64225,-0.50063 2.34871,-1.48785 0.53806,-0.75795 0.80007,-2.14286 0.248,-3.3219 -0.3322,-0.71587 -1.0808,-1.60015 -2.76515,-1.73582 -0.7486,-0.0562 -1.42701,0.0936 -2.02589,0.45382 -0.54273,0.32283 -0.99189,0.81413 -1.30537,1.413 -0.73456,1.4083 -0.59889,3.12541 0.33686,4.27637 0.88895,1.08546 2.26919,1.77792 3.89739,1.95103 0.25734,0.0281 0.50998,0.0374 0.76264,0.0374 0.21521,0 0.42578,-0.009 0.63631,-0.0281 -0.36025,0.0983 -0.68311,0.26669 -0.94512,0.49127 -0.44446,0.38834 -0.69712,0.93574 -0.69712,1.544 0,0.55675 0.18715,0.96848 0.63163,1.38491 -0.34154,0.13567 -0.59888,0.28072 -0.82345,0.45383 -0.46321,0.34621 -0.73456,0.86556 -0.73456,1.38491 0,0.97318 0.88427,1.62821 2.20837,1.62821 1.61883,0 2.7511,-0.89833 2.7511,-2.18032 0,-0.66904 -0.29944,-1.2492 -0.84687,-1.65626 0.8796,-0.36026 1.28666,-0.86556 1.28666,-1.57673 0.005,-0.45386 -0.20586,-0.88431 -0.56612,-1.16033 -0.36026,-0.28543 -0.85622,-0.43515 -1.43639,-0.43515 h -0.0515 c 0.82816,-0.15906 1.61886,-0.4585 2.30664,-0.88427 1.09482,-0.77199 1.72645,-1.96041 1.93232,-3.64943 0.16843,-1.38958 0.0515,-3.15816 -0.36963,-5.57239 -0.10762,-0.62694 -0.26668,-1.53463 -0.46787,-2.6622 1.72645,-0.57549 2.97101,-1.64225 4.09858,-3.39209 0.98722,-1.72179 1.26795,-3.5465 0.84218,-5.43671 m -9.27778,27.97891 c -0.65969,0 -1.09481,-0.42575 -1.09481,-1.05739 0,-0.56612 0.27606,-1.05271 0.77666,-1.35685 0.10761,0.0562 0.131,0.0702 0.23395,0.12166 0.35558,0.17778 0.35558,0.17778 0.43044,0.22458 h 0.005 c 0.57083,0.3275 0.80475,0.63631 0.80475,1.06208 -0.005,0.5708 -0.49593,1.00592 -1.15566,1.00592 m 1.77326,-4.76763 c 0,0.49126 -0.17311,0.81409 -0.63631,1.16967 -0.43512,-0.22457 -0.54741,-0.29006 -0.6597,-0.35558 l -0.0328,-0.0187 c -0.4632,-0.28073 -0.60355,-0.48659 -0.60355,-0.86556 0,-0.53806 0.41173,-0.91703 0.99657,-0.91703 0.5942,0.005 0.93575,0.36492 0.93575,0.98721 M 27.083932,8.20658 c 0.53337,-1.7171 1.35215,-2.69028 1.94636,-3.20961 0.52402,-0.45386 1.01996,-0.66439 1.29601,-0.66439 0.0421,0 0.0749,0.005 0.10761,0.0141 0.13568,0.0421 0.29474,0.21053 0.43512,0.47254 0.69246,1.28199 0.47255,3.29384 0.0702,4.6226 -0.48659,1.61887 -1.36152,3.29852 -3.99567,6.18062 -0.0515,-0.33216 -0.0982,-0.65032 -0.14034,-0.94042 -0.379,-2.48442 -0.28543,-4.66003 0.28072,-6.47539 m -1.19775,31.18388 c -1.38962,-0.36495 -2.71838,-1.11355 -3.84595,-2.16159 -0.38835,-0.36963 -0.9498,-1.01997 -1.38958,-2.03526 -0.40706,-0.9451 -0.60357,-1.97443 -0.58953,-3.04586 0.0187,-1.40363 0.41172,-2.84937 1.16502,-4.28105 0.8749,-1.67501 2.23643,-3.33127 4.05178,-4.92675 0.43512,-0.38363 0.84685,-0.76731 1.23052,-1.15095 0.22925,1.27729 0.47722,2.68092 0.74393,4.14536 -1.15566,0.379 -2.578,1.32409 -3.50908,3.01311 -1.05738,1.96977 -1.01528,3.62137 -0.79537,4.66473 0.28072,1.33344 1.03867,2.46102 2.07266,3.08331 0.28073,0.16843 1.51592,0.80942 2.06803,0.6316 0.11229,-0.0327 0.19181,-0.0982 0.23392,-0.19648 0.15442,-0.35092 -0.1544,-0.54274 -0.62227,-0.83283 -0.17778,-0.10761 -0.37897,-0.23393 -0.59888,-0.39301 -0.99189,-0.74393 -1.42701,-2.07737 -1.10418,-3.3921 0.1731,-0.71585 0.55677,-1.36152 1.10418,-1.8715 0.50064,-0.4632 1.11356,-0.7954 1.82473,-0.98722 0.61289,3.36871 1.23049,6.70467 1.72178,9.20778 0.0374,0.20586 0.0795,0.40706 0.11696,0.60825 -1.31472,0.28072 -2.61543,0.25263 -3.87867,-0.0795 m 7.71057,-3.05991 c -0.35092,0.95447 -1.09017,2.17094 -2.6248,2.78854 -0.0187,-0.12634 -0.0468,-0.25264 -0.0702,-0.38365 -0.4632,-2.62011 -1.03869,-5.90927 -1.6282,-9.28266 3.10198,-0.14035 4.37931,2.08673 4.64598,3.53247 0.14035,0.75795 0.14035,2.08672 -0.32282,3.3453"
     id="path304"
     style="stroke-width:0.29944" />
  <path
     class="Clef"
     d="m 36.132872,253.12983 c -0.36963,-1.62355 -1.16034,-2.76983 -1.39425,-3.07861 -0.95447,-1.28199 -2.15693,-2.13351 -3.56055,-2.54056 -0.93105,-0.26202 -1.82937,-0.29944 -2.55458,-0.24331 -0.30882,-1.80131 -0.60826,-3.56051 -0.87961,-5.19342 1.6282,-1.84341 2.71367,-3.5839 3.39208,-4.87056 1.0387,-1.96976 1.38491,-3.34062 1.39896,-3.40146 0.51464,-1.56269 0.62226,-3.86463 0.29477,-6.32568 -0.30414,-2.25981 -0.93108,-4.27156 -1.63291,-5.24474 -0.30878,-0.4258 -0.62226,-0.6459 -0.93575,-0.6459 -0.36493,0 -1.11353,0.36981 -1.97909,1.20255 -0.68778,0.65488 -1.67033,1.82 -2.43765,3.62134 -0.89832,2.1148 -0.95913,4.9548 -0.85618,6.97135 0.11695,2.17561 0.44916,3.87867 0.44916,3.89272 0.009,0.0281 0.0842,0.47722 0.21987,1.24923 -0.0702,0.0655 -0.14035,0.13568 -0.21521,0.20587 -0.31348,0.29944 -0.66906,0.64098 -1.08079,1.05271 -0.25734,0.25734 -0.54274,0.53336 -0.84218,0.82346 -2.53119,2.43762 -6.36309,6.12915 -6.36309,11.86531 0,1.4083 0.27136,2.73238 0.80474,3.93482 0.47255,1.07611 1.16033,2.05864 2.03993,2.91953 2.31599,2.25985 5.48817,3.22368 7.59829,3.17221 0.88427,-0.0187 1.67501,-0.0889 2.39085,-0.22458 0.54741,2.87744 0.88895,4.98286 0.89832,6.583 0.014,1.94637 -0.48192,3.13942 -1.64692,3.96758 -0.72988,0.51932 -1.57206,0.80475 -2.49847,0.84685 -0.77666,0.0374 -1.45506,-0.10295 -1.88084,-0.22458 h -0.005 c 0,0 -0.0842,-0.0281 -0.0889,-0.0842 -0.005,-0.0562 0.10292,-0.0702 0.10292,-0.0702 h 0.009 c 0.57549,-0.13101 1.64225,-0.50063 2.34871,-1.48786 0.53806,-0.75794 0.80007,-2.14285 0.248,-3.3219 -0.3322,-0.71587 -1.0808,-1.60014 -2.76515,-1.73582 -0.7486,-0.0561 -1.42701,0.0936 -2.02589,0.45383 -0.54273,0.32283 -0.99189,0.81412 -1.30537,1.413 -0.73456,1.40829 -0.59889,3.12541 0.33686,4.27636 0.88895,1.08547 2.26919,1.77793 3.89739,1.95103 0.25734,0.0281 0.50998,0.0374 0.76264,0.0374 0.21521,0 0.42578,-0.009 0.63631,-0.0281 -0.36025,0.0982 -0.68311,0.26668 -0.94512,0.49126 -0.44446,0.38835 -0.69712,0.93575 -0.69712,1.54401 0,0.55674 0.18715,0.96847 0.63163,1.38491 -0.34154,0.13567 -0.59888,0.28072 -0.82345,0.45383 -0.46321,0.34621 -0.73456,0.86556 -0.73456,1.38491 0,0.97317 0.88427,1.6282 2.20837,1.6282 1.61883,0 2.7511,-0.89832 2.7511,-2.18031 0,-0.66904 -0.29944,-1.2492 -0.84687,-1.65627 0.8796,-0.36025 1.28666,-0.86555 1.28666,-1.57673 0.005,-0.45385 -0.20586,-0.8843 -0.56612,-1.16033 -0.36026,-0.28542 -0.85622,-0.43514 -1.43639,-0.43514 h -0.0515 c 0.82816,-0.15906 1.61886,-0.4585 2.30664,-0.88427 1.09482,-0.77199 1.72645,-1.96041 1.93232,-3.64943 0.16843,-1.38958 0.0515,-3.15816 -0.36963,-5.5724 -0.10762,-0.62693 -0.26668,-1.53462 -0.46787,-2.66219 1.72645,-0.5755 2.97101,-1.64226 4.09858,-3.39209 0.98722,-1.72179 1.26795,-3.5465 0.84218,-5.43672 m -9.27797,27.97892 c -0.6597,0 -1.09481,-0.42575 -1.09481,-1.05739 0,-0.56612 0.27605,-1.05271 0.77665,-1.35685 0.10762,0.0561 0.13101,0.0702 0.23395,0.12166 0.35559,0.17778 0.35559,0.17778 0.43045,0.22458 h 0.005 c 0.57082,0.3275 0.80475,0.63631 0.80475,1.06208 -0.005,0.5708 -0.49594,1.00592 -1.15566,1.00592 m 1.77325,-4.76763 c 0,0.49126 -0.17311,0.81409 -0.63631,1.16967 -0.43511,-0.22458 -0.5474,-0.29006 -0.65969,-0.35558 l -0.0328,-0.0187 c -0.4632,-0.28072 -0.60354,-0.48659 -0.60354,-0.86556 0,-0.53806 0.41173,-0.91703 0.99657,-0.91703 0.5942,0.005 0.93574,0.36493 0.93574,0.98722 m -1.54397,-46.54888 c 0.53337,-1.71711 1.35215,-2.69028 1.94636,-3.2096 0.52402,-0.45386 1.01995,-0.6644 1.296,-0.6644 0.0421,0 0.0749,0.005 0.10762,0.014 0.13568,0.0421 0.29474,0.21053 0.43512,0.47254 0.69245,1.28199 0.47255,3.29384 0.0702,4.62261 -0.48659,1.61886 -1.36153,3.2985 -3.99567,6.18062 -0.0515,-0.33217 -0.0982,-0.65033 -0.14034,-0.94043 -0.37901,-2.48442 -0.28543,-4.66003 0.28072,-6.47538 m -1.19776,31.18388 c -1.38961,-0.36496 -2.71837,-1.11356 -3.84594,-2.16159 -0.38835,-0.36963 -0.9498,-1.01997 -1.38958,-2.03526 -0.40707,-0.9451 -0.60357,-1.97443 -0.58953,-3.04587 0.0187,-1.40362 0.41172,-2.84936 1.16502,-4.28104 0.8749,-1.67501 2.23642,-3.33127 4.05178,-4.92675 0.43511,-0.38364 0.84684,-0.76731 1.23052,-1.15095 0.22925,1.27728 0.47721,2.68091 0.74393,4.14535 -1.15566,0.379 -2.578,1.32409 -3.50908,3.01312 -1.05738,1.96976 -1.01528,3.62136 -0.79537,4.66472 0.28072,1.33345 1.03866,2.46103 2.07266,3.08332 0.28073,0.16843 1.51591,0.80941 2.06802,0.6316 0.11229,-0.0327 0.19182,-0.0982 0.23392,-0.19649 0.15442,-0.35091 -0.15439,-0.54273 -0.62226,-0.83282 -0.17778,-0.10762 -0.37897,-0.23394 -0.59888,-0.39302 -0.9919,-0.74392 -1.42701,-2.07736 -1.10419,-3.39209 0.17311,-0.71585 0.55678,-1.36152 1.10419,-1.8715 0.50063,-0.4632 1.11356,-0.79541 1.82472,-0.98722 0.6129,3.3687 1.2305,6.70467 1.72178,9.20778 0.0374,0.20586 0.0795,0.40705 0.11696,0.60825 -1.31472,0.28072 -2.61543,0.25264 -3.87867,-0.0795 m 7.71058,-3.05991 c -0.35092,0.95447 -1.09017,2.17093 -2.6248,2.78853 -0.0187,-0.12633 -0.0468,-0.25264 -0.0702,-0.38364 -0.46321,-2.62012 -1.0387,-5.90927 -1.62821,-9.28266 3.10199,-0.14035 4.37931,2.08673 4.64599,3.53246 0.14035,0.75796 0.14035,2.08672 -0.32282,3.34531"
     id="path306"
     style="stroke-width:0.29944" />
  <path
     class="TimeSig"
     d="m 45.188792,100.76867 h 5.14193 v 2.23175 h -2.461 c -0.23396,0 -0.42577,0.18714 -0.42577,0.4211 v 0.57079 c 0,0.23395 0.19181,0.4211 0.42577,0.4211 h 9.05805 c 0.23393,0 0.42108,-0.18715 0.42108,-0.4211 v -0.57079 c 0,-0.23396 -0.18715,-0.4211 -0.42108,-0.4211 h -2.67624 v -2.23175 h 2.67624 c 0.23393,0 0.42108,-0.18715 0.42108,-0.42108 v -0.57082 c 0,-0.23394 -0.18715,-0.42109 -0.42108,-0.42109 h -2.67624 V 94.574 c 0,-0.15908 -0.0936,-0.30412 -0.23396,-0.3743 l -0.36492,-0.18247 c -0.15909,-0.0749 -0.34624,-0.0468 -0.47725,0.0702 l -2.70897,2.4891 c -0.0842,0.0842 -0.13571,0.19182 -0.13571,0.31347 v 2.4657 h -3.44823 c 0,0 3.33127,-3.60263 6.87778,-8.32349 0.2573,-0.34623 0.10758,-0.65972 0.0514,-0.71587 l -0.65032,-0.65969 c -0.0796,-0.0795 -0.18715,-0.12634 -0.29944,-0.12634 -0.17781,0 -4.23896,0.009 -4.45417,0 -0.21523,-0.005 -0.3743,0.18248 -0.39771,0.36496 0,0 -0.15906,2.2037 -0.94043,4.64132 -0.77667,2.42827 -1.65627,3.92079 -2.45166,5.00626 0,0 -0.16375,0.29477 -0.0561,0.51933 0.10293,0.22458 0.29476,0.54744 0.29476,0.54744 0,0 0.0749,0.15907 0.33219,0.15907"
     id="path308"
     style="stroke-width:0.29944" />
  <path
     class="TimeSig"
     d="m 45.188792,115.66096 h 5.14193 v 2.23175 h -2.461 c -0.23396,0 -0.42577,0.18714 -0.42577,0.4211 v 0.57079 c 0,0.23395 0.19181,0.4211 0.42577,0.4211 h 9.05805 c 0.23393,0 0.42108,-0.18715 0.42108,-0.4211 v -0.57079 c 0,-0.23396 -0.18715,-0.4211 -0.42108,-0.4211 h -2.67624 v -2.23175 h 2.67624 c 0.23393,0 0.42108,-0.18715 0.42108,-0.42108 v -0.57082 c 0,-0.23394 -0.18715,-0.42109 -0.42108,-0.42109 h -2.67624 v -4.78168 c 0,-0.15908 -0.0936,-0.30412 -0.23396,-0.3743 l -0.36492,-0.18247 c -0.15909,-0.0749 -0.34624,-0.0468 -0.47725,0.0702 l -2.70897,2.4891 c -0.0842,0.0842 -0.13571,0.19182 -0.13571,0.31347 v 2.4657 h -3.44823 c 0,0 3.33127,-3.60263 6.87778,-8.32349 0.2573,-0.34623 0.10758,-0.65972 0.0514,-0.71587 l -0.65032,-0.65969 c -0.0796,-0.0795 -0.18715,-0.12634 -0.29944,-0.12634 -0.17781,0 -4.23896,0.009 -4.45417,0 -0.21523,-0.005 -0.3743,0.18248 -0.39771,0.36496 0,0 -0.15906,2.2037 -0.94043,4.64132 -0.77667,2.42827 -1.65627,3.92079 -2.45166,5.00626 0,0 -0.16375,0.29477 -0.0561,0.51933 0.10293,0.22458 0.29476,0.54744 0.29476,0.54744 0,0 0.0749,0.15907 0.33219,0.15907"
     id="path310"
     style="stroke-width:0.29944" />
  <path
     class="TimeSig"
     d="m 45.188792,22.16547 h 5.14193 v 2.23175 h -2.461 c -0.23396,0 -0.42577,0.18715 -0.42577,0.42111 v 0.57079 c 0,0.23395 0.19181,0.4211 0.42577,0.4211 h 9.05805 c 0.23393,0 0.42108,-0.18715 0.42108,-0.4211 v -0.57079 c 0,-0.23396 -0.18715,-0.42111 -0.42108,-0.42111 h -2.67624 v -2.23175 h 2.67624 c 0.23393,0 0.42108,-0.18715 0.42108,-0.42107 v -0.57083 c 0,-0.23394 -0.18715,-0.42109 -0.42108,-0.42109 h -2.67624 V 15.9708 c 0,-0.15907 -0.0936,-0.30412 -0.23396,-0.3743 l -0.36492,-0.18247 c -0.15909,-0.0749 -0.34624,-0.0468 -0.47725,0.0702 l -2.70897,2.4891 c -0.0842,0.0842 -0.13571,0.19183 -0.13571,0.31348 v 2.46569 h -3.44823 c 0,0 3.33127,-3.60263 6.87778,-8.32348 0.2573,-0.34625 0.10758,-0.65973 0.0514,-0.71587 l -0.65032,-0.6597 c -0.0796,-0.0795 -0.18715,-0.12633 -0.29944,-0.12633 -0.17781,0 -4.23896,0.009 -4.45417,0 -0.21523,-0.005 -0.3743,0.18248 -0.39771,0.36496 0,0 -0.15906,2.20369 -0.94043,4.64131 -0.77667,2.42828 -1.65627,3.9208 -2.45166,5.00626 0,0 -0.16375,0.29477 -0.0561,0.51934 0.10293,0.22458 0.29476,0.54744 0.29476,0.54744 0,0 0.0749,0.15906 0.33219,0.15906"
     id="path312"
     style="stroke-width:0.29944" />
  <path
     class="TimeSig"
     d="m 45.188792,37.05806 h 5.14193 v 2.23176 h -2.461 c -0.23396,0 -0.42577,0.18715 -0.42577,0.4211 v 0.57079 c 0,0.23395 0.19181,0.4211 0.42577,0.4211 h 9.05805 c 0.23393,0 0.42108,-0.18715 0.42108,-0.4211 v -0.57079 c 0,-0.23395 -0.18715,-0.4211 -0.42108,-0.4211 h -2.67624 v -2.23176 h 2.67624 c 0.23393,0 0.42108,-0.18715 0.42108,-0.42108 v -0.57082 c 0,-0.23393 -0.18715,-0.42108 -0.42108,-0.42108 h -2.67624 V 30.8634 c 0,-0.15908 -0.0936,-0.30412 -0.23396,-0.3743 l -0.36492,-0.18248 c -0.15909,-0.0749 -0.34624,-0.0468 -0.47725,0.0702 l -2.70897,2.48909 c -0.0842,0.0842 -0.13571,0.19183 -0.13571,0.31348 v 2.4657 h -3.44823 c 0,0 3.33127,-3.60264 6.87778,-8.32349 0.2573,-0.34624 0.10758,-0.65973 0.0514,-0.71587 l -0.65032,-0.6597 c -0.0796,-0.0795 -0.18715,-0.12633 -0.29944,-0.12633 -0.17781,0 -4.23896,0.009 -4.45417,0 -0.21523,-0.005 -0.3743,0.18248 -0.39771,0.36496 0,0 -0.15906,2.2037 -0.94043,4.64132 -0.77667,2.42827 -1.65627,3.92079 -2.45166,5.00626 0,0 -0.16375,0.29476 -0.0561,0.51933 0.10293,0.22458 0.29476,0.54744 0.29476,0.54744 0,0 0.0749,0.15906 0.33219,0.15906"
     id="path314"
     style="stroke-width:0.29944" />
  <path
     class="Rest"
     d="m 361.60757,96.79867 h -8.89433 c -0.24329,0 -0.42108,0.17779 -0.42108,0.42109 v 3.233 c 0,0.23863 0.17779,0.41644 0.42108,0.41644 h 8.89433 c 0.23864,0 0.41637,-0.17781 0.41637,-0.41644 v -3.233 c 0,-0.2433 -0.17773,-0.42109 -0.41637,-0.42109"
     id="path316"
     style="stroke-width:0.29944" />
  <path
     class="Rest"
     d="m 687.33566,96.79867 h -8.89432 c -0.24329,0 -0.42108,0.17779 -0.42108,0.42109 v 3.233 c 0,0.23863 0.17779,0.41644 0.42108,0.41644 h 8.89432 c 0.23865,0 0.41638,-0.17781 0.41638,-0.41644 v -3.233 c 0,-0.2433 -0.17773,-0.42109 -0.41638,-0.42109"
     id="path318"
     style="stroke-width:0.29944" />
  <path
     class="Rest"
     d="m 361.60757,18.19578 h -8.89433 c -0.24329,0 -0.42108,0.17779 -0.42108,0.42108 v 3.23301 c 0,0.23862 0.17779,0.41643 0.42108,0.41643 h 8.89433 c 0.23864,0 0.41637,-0.17781 0.41637,-0.41643 v -3.23301 c 0,-0.24329 -0.17773,-0.42108 -0.41637,-0.42108"
     id="path320"
     style="stroke-width:0.29944" />
  <path
     class="Beam"
     fill-rule="evenodd"
     d="m 435.8847,10.91867 24.54379,-1.9367 v 3.75477 l -24.54379,1.9364 v -3.75447"
     id="path322"
     style="stroke-width:0.301854" />
  <path
     class="Beam"
     fill-rule="evenodd"
     d="M 521.27932,9.04717 545.8231,7.11048 v 3.75476 l -24.54378,1.9364 V 9.04717"
     id="path324"
     style="stroke-width:0.301854" />
  <path
     class="Beam"
     fill-rule="evenodd"
     d="M 617.75502,3.43691 640.49673,1.49508 V 5.25166 L 617.75502,7.19349 V 3.43691"
     id="path326"
     style="stroke-width:0.301854" />
  <path
     class="Beam"
     fill-rule="evenodd"
     d="m 687.75204,46.41102 22.7387,-1.94183 v 3.75658 l -22.7387,1.94182 v -3.75657"
     id="path328"
     style="stroke-width:0.301854" />
  <path
     class="Bracket"
     d="m 1.0501416,65.13293 c 1.91653,-2.05218 5.73264,-6.29235 5.73264,-14.11109 0,-9.88796 -4.27404,-19.89457 -4.27404,-26.01738 0,-6.61452 3.88394,-12.88994 4.00267,-13.05948 0.11871,-0.1866 0.10176,-0.42399 -0.017,-0.50888 -0.11872,-0.0678 -0.33921,0 -0.49185,0.15273 -0.13568,0.16955 -5.95312002,6.05486 -5.95312002,14.89122 0,9.6166 3.79914002,16.31601 3.79914002,28.79889 0,2.37446 -1.01763,6.20747 -3.69738002,9.49785 -0.18656,0.16955 -0.20353,0.47489 -0.0339,0.67842 v 0.017 l 0.0339,0.0339 c 2.67975002,3.29038 3.69738002,7.10645 3.69738002,9.48092 0,12.49982 -3.79914002,19.19922 -3.79914002,28.79889 0,8.83636 5.81744002,14.75556 5.95312002,14.90821 0.15264,0.15264 0.33921,0.23744 0.49185,0.15264 0.15264,-0.10176 0.15264,-0.28833 0.017,-0.50881 -0.15265,-0.22049 -4.00267,-6.44498 -4.00267,-13.05953 0,-6.12279 4.27404,-16.16338 4.27404,-26.03431 0,-7.92055 -3.81611,-12.07583 -5.73264,-14.11109"
     id="path330"
     style="stroke-width:1.08547" />
  <path
     class="Bracket"
     d="m 1.0501416,286.71853 c 1.91653,-2.05218 5.73264,-6.29235 5.73264,-14.11109 0,-9.88796 -4.27404,-19.89457 -4.27404,-26.01738 0,-6.61452 3.88394,-12.88993 4.00267,-13.05949 0.11871,-0.18659 0.10176,-0.42398 -0.017,-0.50886 -0.11872,-0.0679 -0.33921,0 -0.49185,0.15273 -0.13568,0.16954 -5.95312002,6.05485 -5.95312002,14.8912 0,9.6166 3.79914002,16.31601 3.79914002,28.7989 0,2.37446 -1.01763,6.20746 -3.69738002,9.49785 -0.18656,0.16955 -0.20353,0.47489 -0.0339,0.67841 v 0.017 l 0.0339,0.0339 c 2.67975002,3.29037 3.69738002,7.10645 3.69738002,9.48091 0,12.49981 -3.79914002,19.19923 -3.79914002,28.79889 0,8.83637 5.81744002,14.75555 5.95312002,14.9082 0.15264,0.15264 0.33921,0.23744 0.49185,0.15264 0.15264,-0.10174 0.15264,-0.28833 0.017,-0.5088 -0.15265,-0.2205 -4.00267,-6.44499 -4.00267,-13.05952 0,-6.12282 4.27404,-16.1634 4.27404,-26.03431 0,-7.92056 -3.81611,-12.07584 -5.73264,-14.11109"
     id="path332"
     style="stroke-width:1.08547" />
</svg>
